<?xml version="1.0" encoding="utf-8"?>
<!-- Generator: Adobe Illustrator 23.0.2, SVG Export Plug-In . SVG Version: 6.00 Build 0)  -->
<svg version="1.1" id="Layer_1" xmlns="http://www.w3.org/2000/svg" xmlns:xlink="http://www.w3.org/1999/xlink" x="0px" y="0px"
	 viewBox="0 0 1024 500" style="enable-background:new 0 0 1024 500;" xml:space="preserve">
<style type="text/css">
	.st0{fill:#CF0000;}
	.st1{fill:none;stroke:#000000;stroke-width:4;stroke-miterlimit:10;}
	.st2{fill:#009245;}
	.st3{fill:#999999;}
	.st4{fill:#B3B3B3;}
	.st5{fill:#808080;}
	.st6{fill:url(#SVGID_1_);stroke:#000000;stroke-miterlimit:10;}
	.st7{fill:url(#SVGID_2_);stroke:url(#SVGID_3_);stroke-miterlimit:10;}
	.st8{fill:url(#SVGID_4_);stroke:#000000;stroke-miterlimit:10;}
	.st9{fill:url(#SVGID_5_);stroke:#000000;stroke-miterlimit:10;}
	.st10{fill:url(#SVGID_6_);stroke:#000000;stroke-miterlimit:10;}
	.st11{fill:url(#SVGID_7_);stroke:#000000;stroke-miterlimit:10;}
	.st12{fill:url(#SVGID_8_);stroke:url(#SVGID_9_);stroke-miterlimit:10;}
	.st13{fill:url(#SVGID_10_);stroke:#000000;stroke-miterlimit:10;}
	.st14{fill:url(#SVGID_11_);stroke:#000000;stroke-miterlimit:10;}
	.st15{fill:url(#SVGID_12_);stroke:#000000;stroke-miterlimit:10;}
	.st16{fill:url(#SVGID_13_);stroke:#000000;stroke-miterlimit:10;}
	.st17{fill:url(#SVGID_14_);stroke:url(#SVGID_15_);stroke-miterlimit:10;}
	.st18{fill:url(#SVGID_16_);stroke:#000000;stroke-miterlimit:10;}
	.st19{fill:url(#SVGID_17_);stroke:#000000;stroke-miterlimit:10;}
	.st20{fill:url(#SVGID_18_);stroke:#000000;stroke-miterlimit:10;}
	.st21{fill:url(#SVGID_19_);stroke:#000000;stroke-miterlimit:10;}
	.st22{fill:url(#SVGID_20_);stroke:url(#SVGID_21_);stroke-miterlimit:10;}
	.st23{fill:url(#SVGID_22_);stroke:#000000;stroke-miterlimit:10;}
	.st24{fill:url(#SVGID_23_);stroke:#000000;stroke-miterlimit:10;}
	.st25{fill:url(#SVGID_24_);stroke:#000000;stroke-miterlimit:10;}
	.st26{fill:url(#SVGID_25_);stroke:#000000;stroke-miterlimit:10;}
	.st27{fill:url(#SVGID_26_);stroke:url(#SVGID_27_);stroke-miterlimit:10;}
	.st28{fill:url(#SVGID_28_);stroke:#000000;stroke-miterlimit:10;}
	.st29{fill:url(#SVGID_29_);stroke:#000000;stroke-miterlimit:10;}
	.st30{fill:url(#SVGID_30_);stroke:#000000;stroke-miterlimit:10;}
	.st31{fill:url(#SVGID_31_);stroke:#000000;stroke-miterlimit:10;}
	.st32{fill:url(#SVGID_32_);stroke:url(#SVGID_33_);stroke-miterlimit:10;}
	.st33{fill:url(#SVGID_34_);stroke:#000000;stroke-miterlimit:10;}
	.st34{fill:url(#SVGID_35_);stroke:#000000;stroke-miterlimit:10;}
	.st35{fill:url(#SVGID_36_);stroke:#000000;stroke-miterlimit:10;}
	.st36{fill:url(#SVGID_37_);stroke:#000000;stroke-miterlimit:10;}
	.st37{fill:url(#SVGID_38_);stroke:url(#SVGID_39_);stroke-miterlimit:10;}
	.st38{fill:url(#SVGID_40_);stroke:#000000;stroke-miterlimit:10;}
	.st39{fill:url(#SVGID_41_);stroke:#000000;stroke-miterlimit:10;}
	.st40{fill:url(#SVGID_42_);stroke:#000000;stroke-miterlimit:10;}
	.st41{fill:url(#SVGID_43_);stroke:#000000;stroke-miterlimit:10;}
	.st42{fill:url(#SVGID_44_);stroke:url(#SVGID_45_);stroke-miterlimit:10;}
	.st43{fill:url(#SVGID_46_);stroke:#000000;stroke-miterlimit:10;}
	.st44{fill:url(#SVGID_47_);stroke:#000000;stroke-miterlimit:10;}
	.st45{fill:url(#SVGID_48_);stroke:#000000;stroke-miterlimit:10;}
	.st46{fill:url(#SVGID_49_);stroke:#000000;stroke-miterlimit:10;}
	.st47{fill:url(#SVGID_50_);stroke:url(#SVGID_51_);stroke-miterlimit:10;}
	.st48{fill:url(#SVGID_52_);stroke:#000000;stroke-miterlimit:10;}
	.st49{fill:url(#SVGID_53_);stroke:#000000;stroke-miterlimit:10;}
	.st50{fill:url(#SVGID_54_);stroke:#000000;stroke-miterlimit:10;}
	.st51{fill:url(#SVGID_55_);stroke:#000000;stroke-miterlimit:10;}
	.st52{fill:url(#SVGID_56_);stroke:url(#SVGID_57_);stroke-miterlimit:10;}
	.st53{fill:url(#SVGID_58_);stroke:#000000;stroke-miterlimit:10;}
	.st54{fill:url(#SVGID_59_);stroke:#000000;stroke-miterlimit:10;}
	.st55{fill:url(#SVGID_60_);stroke:#000000;stroke-miterlimit:10;}
	.st56{fill:url(#SVGID_61_);stroke:#000000;stroke-miterlimit:10;}
	.st57{fill:url(#SVGID_62_);stroke:url(#SVGID_63_);stroke-miterlimit:10;}
	.st58{fill:url(#SVGID_64_);stroke:#000000;stroke-miterlimit:10;}
	.st59{fill:url(#SVGID_65_);stroke:#000000;stroke-miterlimit:10;}
	.st60{fill:url(#SVGID_66_);stroke:#000000;stroke-miterlimit:10;}
	.st61{fill:url(#SVGID_67_);stroke:#000000;stroke-miterlimit:10;}
	.st62{fill:url(#SVGID_68_);stroke:url(#SVGID_69_);stroke-miterlimit:10;}
	.st63{fill:url(#SVGID_70_);stroke:#000000;stroke-miterlimit:10;}
	.st64{fill:url(#SVGID_71_);stroke:#000000;stroke-miterlimit:10;}
	.st65{fill:url(#SVGID_72_);stroke:#000000;stroke-miterlimit:10;}
	.st66{fill:url(#SVGID_73_);stroke:#000000;stroke-miterlimit:10;}
	.st67{fill:url(#SVGID_74_);stroke:url(#SVGID_75_);stroke-miterlimit:10;}
	.st68{fill:url(#SVGID_76_);stroke:#000000;stroke-miterlimit:10;}
	.st69{fill:url(#SVGID_77_);stroke:#000000;stroke-miterlimit:10;}
	.st70{fill:url(#SVGID_78_);stroke:#000000;stroke-miterlimit:10;}
	.st71{fill:url(#SVGID_79_);stroke:#000000;stroke-miterlimit:10;}
	.st72{fill:url(#SVGID_80_);stroke:url(#SVGID_81_);stroke-miterlimit:10;}
	.st73{fill:url(#SVGID_82_);stroke:#000000;stroke-miterlimit:10;}
	.st74{fill:url(#SVGID_83_);stroke:#000000;stroke-miterlimit:10;}
	.st75{fill:url(#SVGID_84_);stroke:#000000;stroke-miterlimit:10;}
	.st76{fill:url(#SVGID_85_);stroke:#000000;stroke-miterlimit:10;}
	.st77{fill:url(#SVGID_86_);stroke:url(#SVGID_87_);stroke-miterlimit:10;}
	.st78{fill:url(#SVGID_88_);stroke:#000000;stroke-miterlimit:10;}
	.st79{fill:url(#SVGID_89_);stroke:#000000;stroke-miterlimit:10;}
	.st80{fill:url(#SVGID_90_);stroke:#000000;stroke-miterlimit:10;}
	.st81{fill:url(#SVGID_91_);stroke:#000000;stroke-miterlimit:10;}
	.st82{fill:url(#SVGID_92_);stroke:url(#SVGID_93_);stroke-miterlimit:10;}
	.st83{fill:url(#SVGID_94_);stroke:#000000;stroke-miterlimit:10;}
	.st84{fill:url(#SVGID_95_);stroke:#000000;stroke-miterlimit:10;}
	.st85{fill:url(#SVGID_96_);stroke:#000000;stroke-miterlimit:10;}
	.st86{fill:#662D91;}
</style>
<g>
	<g>
		<g>
			<path class="st0" d="M228.51,204.35c0,3.79-0.94,7.21-2.84,10.25s-4.61,5.65-8.14,7.82c-3.54,2.17-7.9,3.84-13.09,5.01
				s-11.04,1.76-17.57,1.76c-3.97,0-7.67-0.22-11.12-0.67c-3.45-0.45-6.51-0.97-9.2-1.6c-2.68-0.61-4.91-1.26-6.68-1.91
				c-1.77-0.66-2.89-1.13-3.35-1.43c-0.46-0.29-0.81-0.6-1.06-0.9c-0.24-0.3-0.46-0.66-0.65-1.08c-0.19-0.42-0.32-0.95-0.41-1.56
				c-0.09-0.61-0.14-1.37-0.14-2.27c0-1.53,0.22-2.59,0.65-3.19s1.07-0.9,1.87-0.9c0.56,0,1.67,0.34,3.33,1.02
				c1.67,0.69,3.79,1.42,6.39,2.21c2.6,0.79,5.62,1.53,9.11,2.21c3.47,0.69,7.34,1.02,11.59,1.02c4.12,0,7.76-0.36,10.89-1.08
				c3.13-0.72,5.76-1.75,7.89-3.07c2.12-1.32,3.73-2.88,4.78-4.69s1.59-3.78,1.59-5.91c0-2.34-0.69-4.45-2.04-6.32
				s-3.35-3.49-5.95-4.86c-2.61-1.36-5.83-2.41-9.64-3.13c-3.8-0.72-8.14-1.08-12.99-1.08h-11.59c-0.51,0-0.99-0.07-1.46-0.22
				s-0.88-0.4-1.23-0.74c-0.34-0.34-0.64-0.79-0.85-1.35c-0.23-0.55-0.33-1.28-0.33-2.17c0-0.81,0.09-1.48,0.27-2.01
				c0.19-0.54,0.43-0.96,0.78-1.28c0.33-0.32,0.71-0.55,1.15-0.7c0.43-0.15,0.92-0.22,1.46-0.22h10.34c4.02,0,7.65-0.36,10.84-1.08
				c3.21-0.72,5.92-1.77,8.14-3.13c2.23-1.36,3.94-2.99,5.13-4.89c1.18-1.9,1.78-4.02,1.78-6.36c0-1.7-0.41-3.33-1.18-4.89
				c-0.79-1.56-1.98-2.91-3.56-4.05c-1.59-1.15-3.61-2.06-6.08-2.72s-5.32-0.99-8.56-0.99c-3.54,0-6.78,0.37-9.75,1.12
				c-2.96,0.74-5.6,1.55-7.91,2.39s-4.24,1.65-5.76,2.39s-2.6,1.12-3.21,1.12c-0.43,0-0.81-0.05-1.15-0.15
				c-0.33-0.11-0.61-0.32-0.83-0.64c-0.22-0.32-0.37-0.77-0.46-1.35c-0.09-0.57-0.14-1.32-0.14-2.27c0-0.64,0.03-1.2,0.09-1.7
				c0.05-0.49,0.19-0.91,0.37-1.28c0.19-0.36,0.39-0.7,0.65-0.99c0.24-0.3,0.65-0.65,1.23-1.05c0.57-0.4,1.76-0.99,3.52-1.76
				c1.77-0.77,3.94-1.52,6.54-2.27c2.6-0.74,5.59-1.37,8.97-1.88c3.38-0.51,7.02-0.77,10.94-0.77c5.48,0,10.31,0.5,14.45,1.47
				c4.15,0.97,7.61,2.36,10.4,4.15c2.77,1.8,4.85,3.93,6.22,6.42c1.37,2.49,2.06,5.25,2.06,8.27c0,2.59-0.48,5.01-1.46,7.26
				c-0.98,2.23-2.4,4.22-4.3,5.94c-1.9,1.73-4.21,3.19-6.96,4.41c-2.75,1.22-5.92,2.06-9.52,2.52v0.12
				c4.08,0.3,7.83,1.01,11.21,2.14c3.38,1.12,6.3,2.54,8.74,4.24c2.43,1.7,4.35,3.69,5.73,5.97
				C227.82,199.31,228.51,201.75,228.51,204.35z"/>
		</g>
		<rect x="127.78" y="125.79" class="st1" width="127.24" height="124.71"/>
	</g>
	<g>
		<g>
			<path class="st2" d="M230.24,351.39c0,0.86-0.08,1.63-0.24,2.29c-0.17,0.67-0.38,1.23-0.67,1.68c-0.28,0.45-0.67,0.79-1.15,1
				c-0.48,0.21-1.01,0.32-1.59,0.32h-68.58c-0.89,0-1.68-0.09-2.34-0.26c-0.67-0.16-1.25-0.44-1.73-0.84
				c-0.48-0.37-0.83-0.94-1.06-1.65c-0.23-0.71-0.33-1.6-0.33-2.66c0-0.95,0.05-1.8,0.15-2.51c0.1-0.71,0.32-1.35,0.64-1.91
				c0.33-0.55,0.74-1.11,1.23-1.65c0.5-0.55,1.13-1.13,1.93-1.76l24.81-19.09c5.73-4.4,10.33-8.34,13.79-11.85
				c3.46-3.49,6.13-6.67,8-9.54c1.88-2.87,3.1-5.47,3.7-7.82c0.59-2.34,0.89-4.55,0.89-6.61s-0.47-4-1.39-5.85
				c-0.93-1.85-2.25-3.47-4.01-4.84c-1.74-1.38-3.94-2.49-6.59-3.29c-2.65-0.81-5.67-1.22-9.11-1.22c-4.02,0-7.65,0.41-10.84,1.22
				c-3.21,0.81-6.01,1.7-8.41,2.66c-2.4,0.96-4.42,1.85-6.03,2.66c-1.62,0.82-2.82,1.22-3.61,1.22c-0.46,0-0.88-0.09-1.23-0.29
				c-0.37-0.2-0.66-0.5-0.89-0.94c-0.23-0.44-0.42-1-0.55-1.72c-0.13-0.71-0.19-1.57-0.19-2.58c0-0.71,0.03-1.35,0.09-1.86
				c0.06-0.52,0.18-0.99,0.33-1.36c0.17-0.37,0.37-0.74,0.62-1.07s0.78-0.76,1.54-1.26c0.76-0.5,2.1-1.18,3.98-2.05
				c1.9-0.86,4.26-1.71,7.1-2.54c2.84-0.84,5.98-1.55,9.4-2.12c3.41-0.57,7.01-0.86,10.79-0.86c6.02,0,11.27,0.64,15.78,1.91
				c4.52,1.27,8.24,3.01,11.22,5.2c2.98,2.21,5.19,4.76,6.67,7.68c1.48,2.92,2.2,6.04,2.2,9.33c0,2.97-0.36,5.92-1.06,8.87
				c-0.7,2.94-2.2,6.12-4.47,9.54c-2.28,3.42-5.55,7.23-9.84,11.42c-4.29,4.19-9.98,9.02-17.08,14.47l-19.66,15.34h54.01
				c0.51,0,1.01,0.1,1.49,0.32c0.48,0.21,0.89,0.55,1.25,0.97c0.36,0.42,0.61,0.97,0.78,1.62
				C230.17,349.77,230.24,350.53,230.24,351.39z"/>
		</g>
		<g>
			<rect x="127.78" y="249.5" class="st1" width="127.24" height="124.71"/>
		</g>
	</g>
	<g>
		<g>
			<g>
				<rect x="900.55" y="4.77" class="st3" width="119.6" height="116.99"/>
				<polygon class="st4" points="1020.15,4.77 900.55,4.77 896.73,1.04 1023.97,1.04 				"/>
			</g>
			<polygon class="st5" points="900.55,121.76 1020.15,121.76 1023.97,125.49 896.73,125.49 			"/>
			<polygon class="st4" points="900.8,4.89 900.8,121.89 896.99,125.62 896.99,1.16 			"/>
			<polygon class="st5" points="1019.9,121.64 1019.9,4.65 1023.97,0.91 1023.97,125.37 			"/>
		</g>
		<g>
			<g>
				<g>
					
						<radialGradient id="SVGID_1_" cx="454.7926" cy="484.3" r="9.2411" gradientTransform="matrix(1.2724 0 0 1.2471 -131.2909 -558.0983)" gradientUnits="userSpaceOnUse">
						<stop  offset="0" style="stop-color:#FFFFFF"/>
						<stop  offset="1" style="stop-color:#000000"/>
					</radialGradient>
					<rect x="433.58" y="36.75" class="st6" width="27.58" height="18.21"/>
					
						<radialGradient id="SVGID_2_" cx="455.2126" cy="510.93" r="30.7746" gradientTransform="matrix(1.2724 0 0 1.2471 -131.2909 -558.0983)" gradientUnits="userSpaceOnUse">
						<stop  offset="0" style="stop-color:#FFFFFF"/>
						<stop  offset="1" style="stop-color:#000000"/>
					</radialGradient>
					
						<radialGradient id="SVGID_3_" cx="455.2126" cy="510.93" r="31.2729" gradientTransform="matrix(1.2724 0 0 1.2471 -131.2909 -558.0983)" gradientUnits="userSpaceOnUse">
						<stop  offset="0" style="stop-color:#FFFFFF"/>
						<stop  offset="1" style="stop-color:#000000"/>
					</radialGradient>
					<ellipse class="st7" cx="447.91" cy="79.07" rx="42.32" ry="35.01"/>
					
						<radialGradient id="SVGID_4_" cx="454.7926" cy="476.51" r="8.0311" gradientTransform="matrix(1.2724 0 0 1.2471 -131.2909 -558.0983)" gradientUnits="userSpaceOnUse">
						<stop  offset="0" style="stop-color:#FFFFFF"/>
						<stop  offset="1" style="stop-color:#000000"/>
					</radialGradient>
					<ellipse class="st8" cx="447.37" cy="36.14" rx="13.79" ry="4.23"/>
					
						<radialGradient id="SVGID_5_" cx="456.7426" cy="470.3781" r="5.1654" gradientTransform="matrix(1.2724 0 0 1.2471 -131.2909 -558.0983)" gradientUnits="userSpaceOnUse">
						<stop  offset="0" style="stop-color:#FFFFFF"/>
						<stop  offset="0" style="stop-color:#F7F6F7"/>
						<stop  offset="1" style="stop-color:#000000"/>
					</radialGradient>
					<path class="st9" d="M454.42,22.32c0,0.57-0.28,1.13-0.8,1.47l-5.18,3.35v7.73c0,0.85-0.7,1.55-1.58,1.55
						c-0.87,0-1.58-0.69-1.58-1.55v-9.25c0-0.77,0.57-1.4,1.32-1.52l5.01-3.25c0.83-0.54,1.95-0.31,2.49,0.5
						C454.33,21.65,454.42,21.99,454.42,22.32z"/>
					
						<radialGradient id="SVGID_6_" cx="464.2176" cy="463.04" r="8.4828" gradientTransform="matrix(1.2724 0 0 1.2471 -131.2909 -558.0983)" gradientUnits="userSpaceOnUse">
						<stop  offset="0.4837" style="stop-color:#FFFF00"/>
						<stop  offset="1" style="stop-color:#FF0000"/>
					</radialGradient>
					<polygon class="st10" points="450.32,20.77 446.18,17.51 450.32,17.51 447.42,11.81 451.79,14.26 453.44,15.88 459.05,11.81 
						454.69,18.12 467.98,11.81 462.17,17.51 472.55,20.77 460.3,20.77 467.77,26.88 457.18,23.01 461.75,26.88 453.86,23.82 					
						"/>
				</g>
				<rect x="384.29" y="3.08" class="st1" width="127.24" height="124.71"/>
			</g>
			<g>
				<g>
					<path class="st5" d="M476.42,208.76c0,3.65-0.66,6.91-2,9.75c-1.34,2.84-3.24,5.25-5.75,7.21c-2.51,1.96-5.6,3.44-9.29,4.44
						c-3.69,1-7.9,1.51-12.65,1.51c-4.44,0-8.41-0.46-11.91-1.37c-3.51-0.91-6.48-2.26-8.92-4.04c-2.44-1.78-4.31-3.98-5.6-6.58
						s-1.92-5.59-1.92-8.94c0-2.66,0.43-5.09,1.34-7.31c0.89-2.22,2.16-4.26,3.82-6.12c1.67-1.87,3.72-3.63,6.16-5.25
						c2.44-1.63,5.19-3.18,8.26-4.66c-2.66-1.35-5.01-2.77-7.05-4.26c-2.04-1.51-3.78-3.13-5.19-4.9c-1.43-1.76-2.49-3.64-3.23-5.64
						c-0.74-2-1.09-4.18-1.09-6.52c0-2.96,0.55-5.72,1.63-8.32s2.72-4.84,4.92-6.76c2.19-1.92,5-3.43,8.38-4.53
						c3.4-1.11,7.35-1.66,11.87-1.66c4.35,0,8.12,0.51,11.29,1.53c3.17,1.02,5.79,2.41,7.85,4.18c2.07,1.76,3.59,3.84,4.56,6.24
						c0.97,2.39,1.46,4.96,1.46,7.69c0,2.22-0.36,4.35-1.09,6.38c-0.74,2.05-1.81,3.98-3.23,5.8c-1.43,1.83-3.17,3.53-5.23,5.13
						c-2.07,1.58-4.43,3.07-7.09,4.46c3.14,1.52,5.95,3.09,8.41,4.7c2.46,1.61,4.53,3.33,6.18,5.19c1.67,1.85,2.93,3.8,3.79,5.87
						C475.97,204.04,476.42,206.29,476.42,208.76z M464.84,209.95c0-2-0.38-3.82-1.13-5.45c-0.75-1.63-1.9-3.14-3.44-4.56
						c-1.54-1.42-3.44-2.78-5.73-4.12c-2.29-1.32-4.94-2.71-7.95-4.14c-2.79,1.35-5.24,2.71-7.35,4.04
						c-2.11,1.35-3.84,2.73-5.19,4.18c-1.35,1.43-2.38,2.94-3.05,4.53c-0.67,1.58-1.03,3.33-1.03,5.25c0,4.23,1.48,7.48,4.43,9.78
						c2.95,2.31,7.35,3.45,13.21,3.45c5.67,0,9.98-1.17,12.88-3.49C463.38,217.09,464.84,213.94,464.84,209.95z M462.04,165.45
						c0-1.83-0.32-3.48-0.97-4.96c-0.65-1.47-1.59-2.73-2.82-3.78c-1.23-1.05-2.79-1.85-4.62-2.38c-1.83-0.54-3.93-0.81-6.29-0.81
						c-4.8,0-8.41,1.06-10.89,3.19c-2.46,2.13-3.7,5.05-3.7,8.74c0,1.7,0.29,3.27,0.89,4.73c0.6,1.46,1.54,2.84,2.79,4.14
						c1.27,1.31,2.86,2.58,4.8,3.82c1.93,1.25,4.24,2.53,6.9,3.88c4.48-2.26,7.93-4.76,10.32-7.51
						C460.83,171.77,462.04,168.76,462.04,165.45z"/>
				</g>
				<rect x="383.78" y="127.29" class="st1" width="127.24" height="124.71"/>
			</g>
			<g>
				<g>
					
						<radialGradient id="SVGID_7_" cx="554.7926" cy="484.3" r="9.2411" gradientTransform="matrix(1.2724 0 0 1.2471 -131.2909 -558.0983)" gradientUnits="userSpaceOnUse">
						<stop  offset="0" style="stop-color:#FFFFFF"/>
						<stop  offset="1" style="stop-color:#000000"/>
					</radialGradient>
					<rect x="560.82" y="36.75" class="st11" width="27.58" height="18.21"/>
					
						<radialGradient id="SVGID_8_" cx="555.2126" cy="510.93" r="30.7746" gradientTransform="matrix(1.2724 0 0 1.2471 -131.2909 -558.0983)" gradientUnits="userSpaceOnUse">
						<stop  offset="0" style="stop-color:#FFFFFF"/>
						<stop  offset="1" style="stop-color:#000000"/>
					</radialGradient>
					
						<radialGradient id="SVGID_9_" cx="555.2126" cy="510.93" r="31.2729" gradientTransform="matrix(1.2724 0 0 1.2471 -131.2909 -558.0983)" gradientUnits="userSpaceOnUse">
						<stop  offset="0" style="stop-color:#FFFFFF"/>
						<stop  offset="1" style="stop-color:#000000"/>
					</radialGradient>
					<ellipse class="st12" cx="575.14" cy="79.07" rx="42.32" ry="35.01"/>
					
						<radialGradient id="SVGID_10_" cx="554.7926" cy="476.51" r="8.0311" gradientTransform="matrix(1.2724 0 0 1.2471 -131.2909 -558.0983)" gradientUnits="userSpaceOnUse">
						<stop  offset="0" style="stop-color:#FFFFFF"/>
						<stop  offset="1" style="stop-color:#000000"/>
					</radialGradient>
					<ellipse class="st13" cx="574.61" cy="36.14" rx="13.79" ry="4.23"/>
					
						<radialGradient id="SVGID_11_" cx="556.7426" cy="470.3781" r="5.1654" gradientTransform="matrix(1.2724 0 0 1.2471 -131.2909 -558.0983)" gradientUnits="userSpaceOnUse">
						<stop  offset="0" style="stop-color:#FFFFFF"/>
						<stop  offset="0" style="stop-color:#F7F6F7"/>
						<stop  offset="1" style="stop-color:#000000"/>
					</radialGradient>
					<path class="st14" d="M581.66,22.32c0,0.57-0.28,1.13-0.8,1.47l-5.18,3.35v7.73c0,0.85-0.7,1.55-1.58,1.55
						c-0.87,0-1.58-0.69-1.58-1.55v-9.25c0-0.77,0.57-1.4,1.32-1.52l5.01-3.25c0.83-0.54,1.95-0.31,2.49,0.5
						C581.57,21.65,581.66,21.99,581.66,22.32z"/>
					
						<radialGradient id="SVGID_12_" cx="564.2176" cy="463.04" r="8.4828" gradientTransform="matrix(1.2724 0 0 1.2471 -131.2909 -558.0983)" gradientUnits="userSpaceOnUse">
						<stop  offset="0.4837" style="stop-color:#FFFF00"/>
						<stop  offset="1" style="stop-color:#FF0000"/>
					</radialGradient>
					<polygon class="st15" points="577.56,20.77 573.41,17.51 577.56,17.51 574.66,11.81 579.02,14.26 580.68,15.88 586.29,11.81 
						581.92,18.12 595.22,11.81 589.41,17.51 599.79,20.77 587.54,20.77 595,26.88 584.42,23.01 588.99,26.88 581.1,23.82 					"/>
				</g>
				<rect x="511.52" y="3.08" class="st1" width="127.24" height="124.71"/>
			</g>
			<g>
				<g>
					
						<radialGradient id="SVGID_13_" cx="554.7926" cy="584.3" r="9.2411" gradientTransform="matrix(1.2724 0 0 1.2471 -131.2909 -558.0983)" gradientUnits="userSpaceOnUse">
						<stop  offset="0" style="stop-color:#FFFFFF"/>
						<stop  offset="1" style="stop-color:#000000"/>
					</radialGradient>
					<rect x="560.82" y="161.46" class="st16" width="27.58" height="18.21"/>
					
						<radialGradient id="SVGID_14_" cx="555.2126" cy="610.93" r="30.7746" gradientTransform="matrix(1.2724 0 0 1.2471 -131.2909 -558.0983)" gradientUnits="userSpaceOnUse">
						<stop  offset="0" style="stop-color:#FFFFFF"/>
						<stop  offset="1" style="stop-color:#000000"/>
					</radialGradient>
					
						<radialGradient id="SVGID_15_" cx="555.2126" cy="610.93" r="31.2729" gradientTransform="matrix(1.2724 0 0 1.2471 -131.2909 -558.0983)" gradientUnits="userSpaceOnUse">
						<stop  offset="0" style="stop-color:#FFFFFF"/>
						<stop  offset="1" style="stop-color:#000000"/>
					</radialGradient>
					<ellipse class="st17" cx="575.14" cy="203.77" rx="42.32" ry="35.01"/>
					
						<radialGradient id="SVGID_16_" cx="554.7926" cy="576.51" r="8.0311" gradientTransform="matrix(1.2724 0 0 1.2471 -131.2909 -558.0983)" gradientUnits="userSpaceOnUse">
						<stop  offset="0" style="stop-color:#FFFFFF"/>
						<stop  offset="1" style="stop-color:#000000"/>
					</radialGradient>
					<ellipse class="st18" cx="574.61" cy="160.85" rx="13.79" ry="4.23"/>
					
						<radialGradient id="SVGID_17_" cx="556.7426" cy="570.3781" r="5.1654" gradientTransform="matrix(1.2724 0 0 1.2471 -131.2909 -558.0983)" gradientUnits="userSpaceOnUse">
						<stop  offset="0" style="stop-color:#FFFFFF"/>
						<stop  offset="0" style="stop-color:#F7F6F7"/>
						<stop  offset="1" style="stop-color:#000000"/>
					</radialGradient>
					<path class="st19" d="M581.66,147.03c0,0.57-0.28,1.13-0.8,1.47l-5.18,3.35v7.73c0,0.85-0.7,1.55-1.58,1.55
						c-0.87,0-1.58-0.69-1.58-1.55v-9.25c0-0.77,0.57-1.4,1.32-1.52l5.01-3.25c0.83-0.54,1.95-0.31,2.49,0.5
						C581.57,146.36,581.66,146.69,581.66,147.03z"/>
					
						<radialGradient id="SVGID_18_" cx="564.2176" cy="563.04" r="8.4828" gradientTransform="matrix(1.2724 0 0 1.2471 -131.2909 -558.0983)" gradientUnits="userSpaceOnUse">
						<stop  offset="0.4837" style="stop-color:#FFFF00"/>
						<stop  offset="1" style="stop-color:#FF0000"/>
					</radialGradient>
					<polygon class="st20" points="577.56,145.47 573.41,142.22 577.56,142.22 574.66,136.52 579.02,138.96 580.68,140.58 
						586.29,136.52 581.92,142.83 595.22,136.52 589.41,142.22 599.79,145.47 587.54,145.47 595,151.58 584.42,147.72 
						588.99,151.58 581.1,148.53 					"/>
				</g>
				<rect x="511.52" y="127.79" class="st1" width="127.24" height="124.71"/>
			</g>
			<g>
				<g>
					
						<radialGradient id="SVGID_19_" cx="554.7926" cy="683.5" r="9.2411" gradientTransform="matrix(1.2724 0 0 1.2471 -131.2909 -558.0983)" gradientUnits="userSpaceOnUse">
						<stop  offset="0" style="stop-color:#FFFFFF"/>
						<stop  offset="1" style="stop-color:#000000"/>
					</radialGradient>
					<rect x="560.82" y="285.17" class="st21" width="27.58" height="18.21"/>
					
						<radialGradient id="SVGID_20_" cx="555.2126" cy="710.13" r="30.7746" gradientTransform="matrix(1.2724 0 0 1.2471 -131.2909 -558.0983)" gradientUnits="userSpaceOnUse">
						<stop  offset="0" style="stop-color:#FFFFFF"/>
						<stop  offset="1" style="stop-color:#000000"/>
					</radialGradient>
					
						<radialGradient id="SVGID_21_" cx="555.2126" cy="710.13" r="31.2729" gradientTransform="matrix(1.2724 0 0 1.2471 -131.2909 -558.0983)" gradientUnits="userSpaceOnUse">
						<stop  offset="0" style="stop-color:#FFFFFF"/>
						<stop  offset="1" style="stop-color:#000000"/>
					</radialGradient>
					<ellipse class="st22" cx="575.14" cy="327.48" rx="42.32" ry="35.01"/>
					
						<radialGradient id="SVGID_22_" cx="554.7926" cy="675.71" r="8.0311" gradientTransform="matrix(1.2724 0 0 1.2471 -131.2909 -558.0983)" gradientUnits="userSpaceOnUse">
						<stop  offset="0" style="stop-color:#FFFFFF"/>
						<stop  offset="1" style="stop-color:#000000"/>
					</radialGradient>
					<ellipse class="st23" cx="574.61" cy="284.56" rx="13.79" ry="4.23"/>
					
						<radialGradient id="SVGID_23_" cx="556.7426" cy="669.5781" r="5.1654" gradientTransform="matrix(1.2724 0 0 1.2471 -131.2909 -558.0983)" gradientUnits="userSpaceOnUse">
						<stop  offset="0" style="stop-color:#FFFFFF"/>
						<stop  offset="0" style="stop-color:#F7F6F7"/>
						<stop  offset="1" style="stop-color:#000000"/>
					</radialGradient>
					<path class="st24" d="M581.66,270.74c0,0.57-0.28,1.13-0.8,1.47l-5.18,3.35v7.73c0,0.85-0.7,1.55-1.58,1.55
						c-0.87,0-1.58-0.69-1.58-1.55v-9.25c0-0.77,0.57-1.4,1.32-1.52l5.01-3.25c0.83-0.54,1.95-0.31,2.49,0.5
						C581.57,270.07,581.66,270.4,581.66,270.74z"/>
					
						<radialGradient id="SVGID_24_" cx="564.2176" cy="662.24" r="8.4828" gradientTransform="matrix(1.2724 0 0 1.2471 -131.2909 -558.0983)" gradientUnits="userSpaceOnUse">
						<stop  offset="0.4837" style="stop-color:#FFFF00"/>
						<stop  offset="1" style="stop-color:#FF0000"/>
					</radialGradient>
					<polygon class="st25" points="577.56,269.18 573.41,265.93 577.56,265.93 574.66,260.23 579.02,262.67 580.68,264.29 
						586.29,260.23 581.92,266.54 595.22,260.23 589.41,265.93 599.79,269.18 587.54,269.18 595,275.29 584.42,271.43 
						588.99,275.29 581.1,272.24 					"/>
				</g>
				<rect x="511.52" y="251.5" class="st1" width="127.24" height="124.71"/>
			</g>
			<g>
				<g>
					
						<radialGradient id="SVGID_25_" cx="453.9926" cy="683.5" r="9.2411" gradientTransform="matrix(1.2724 0 0 1.2471 -131.2909 -558.0983)" gradientUnits="userSpaceOnUse">
						<stop  offset="0" style="stop-color:#FFFFFF"/>
						<stop  offset="1" style="stop-color:#000000"/>
					</radialGradient>
					<rect x="432.56" y="285.17" class="st26" width="27.58" height="18.21"/>
					
						<radialGradient id="SVGID_26_" cx="454.4126" cy="710.13" r="30.7746" gradientTransform="matrix(1.2724 0 0 1.2471 -131.2909 -558.0983)" gradientUnits="userSpaceOnUse">
						<stop  offset="0" style="stop-color:#FFFFFF"/>
						<stop  offset="1" style="stop-color:#000000"/>
					</radialGradient>
					
						<radialGradient id="SVGID_27_" cx="454.4126" cy="710.13" r="31.2729" gradientTransform="matrix(1.2724 0 0 1.2471 -131.2909 -558.0983)" gradientUnits="userSpaceOnUse">
						<stop  offset="0" style="stop-color:#FFFFFF"/>
						<stop  offset="1" style="stop-color:#000000"/>
					</radialGradient>
					<ellipse class="st27" cx="446.89" cy="327.48" rx="42.32" ry="35.01"/>
					
						<radialGradient id="SVGID_28_" cx="453.9926" cy="675.71" r="8.0311" gradientTransform="matrix(1.2724 0 0 1.2471 -131.2909 -558.0983)" gradientUnits="userSpaceOnUse">
						<stop  offset="0" style="stop-color:#FFFFFF"/>
						<stop  offset="1" style="stop-color:#000000"/>
					</radialGradient>
					<ellipse class="st28" cx="446.35" cy="284.56" rx="13.79" ry="4.23"/>
					
						<radialGradient id="SVGID_29_" cx="455.9426" cy="669.5781" r="5.1654" gradientTransform="matrix(1.2724 0 0 1.2471 -131.2909 -558.0983)" gradientUnits="userSpaceOnUse">
						<stop  offset="0" style="stop-color:#FFFFFF"/>
						<stop  offset="0" style="stop-color:#F7F6F7"/>
						<stop  offset="1" style="stop-color:#000000"/>
					</radialGradient>
					<path class="st29" d="M453.4,270.74c0,0.57-0.28,1.13-0.8,1.47l-5.18,3.35v7.73c0,0.85-0.7,1.55-1.58,1.55
						c-0.87,0-1.58-0.69-1.58-1.55v-9.25c0-0.77,0.57-1.4,1.32-1.52l5.01-3.25c0.83-0.54,1.95-0.31,2.49,0.5
						C453.31,270.07,453.4,270.4,453.4,270.74z"/>
					
						<radialGradient id="SVGID_30_" cx="463.4176" cy="662.24" r="8.4828" gradientTransform="matrix(1.2724 0 0 1.2471 -131.2909 -558.0983)" gradientUnits="userSpaceOnUse">
						<stop  offset="0.4837" style="stop-color:#FFFF00"/>
						<stop  offset="1" style="stop-color:#FF0000"/>
					</radialGradient>
					<polygon class="st30" points="449.31,269.18 445.16,265.93 449.31,265.93 446.4,260.23 450.77,262.67 452.42,264.29 
						458.03,260.23 453.67,266.54 466.97,260.23 461.15,265.93 471.53,269.18 459.28,269.18 466.75,275.29 456.16,271.43 
						460.73,275.29 452.84,272.24 					"/>
				</g>
				<rect x="383.27" y="251.5" class="st1" width="127.24" height="124.71"/>
			</g>
			<g>
				<g>
					
						<radialGradient id="SVGID_31_" cx="354.7926" cy="583.5" r="9.2411" gradientTransform="matrix(1.2724 0 0 1.2471 -131.2909 -558.0983)" gradientUnits="userSpaceOnUse">
						<stop  offset="0" style="stop-color:#FFFFFF"/>
						<stop  offset="1" style="stop-color:#000000"/>
					</radialGradient>
					<rect x="306.34" y="160.46" class="st31" width="27.58" height="18.21"/>
					
						<radialGradient id="SVGID_32_" cx="355.2126" cy="610.13" r="30.7746" gradientTransform="matrix(1.2724 0 0 1.2471 -131.2909 -558.0983)" gradientUnits="userSpaceOnUse">
						<stop  offset="0" style="stop-color:#FFFFFF"/>
						<stop  offset="1" style="stop-color:#000000"/>
					</radialGradient>
					
						<radialGradient id="SVGID_33_" cx="355.2126" cy="610.13" r="31.2729" gradientTransform="matrix(1.2724 0 0 1.2471 -131.2909 -558.0983)" gradientUnits="userSpaceOnUse">
						<stop  offset="0" style="stop-color:#FFFFFF"/>
						<stop  offset="1" style="stop-color:#000000"/>
					</radialGradient>
					<ellipse class="st32" cx="320.67" cy="202.78" rx="42.32" ry="35.01"/>
					
						<radialGradient id="SVGID_34_" cx="354.7926" cy="575.71" r="8.0311" gradientTransform="matrix(1.2724 0 0 1.2471 -131.2909 -558.0983)" gradientUnits="userSpaceOnUse">
						<stop  offset="0" style="stop-color:#FFFFFF"/>
						<stop  offset="1" style="stop-color:#000000"/>
					</radialGradient>
					<ellipse class="st33" cx="320.14" cy="159.85" rx="13.79" ry="4.23"/>
					
						<radialGradient id="SVGID_35_" cx="356.7426" cy="569.5781" r="5.1654" gradientTransform="matrix(1.2724 0 0 1.2471 -131.2909 -558.0983)" gradientUnits="userSpaceOnUse">
						<stop  offset="0" style="stop-color:#FFFFFF"/>
						<stop  offset="0" style="stop-color:#F7F6F7"/>
						<stop  offset="1" style="stop-color:#000000"/>
					</radialGradient>
					<path class="st34" d="M327.18,146.03c0,0.57-0.28,1.13-0.8,1.47l-5.18,3.35v7.73c0,0.85-0.7,1.55-1.58,1.55
						c-0.87,0-1.58-0.69-1.58-1.55v-9.25c0-0.77,0.57-1.4,1.32-1.52l5.01-3.25c0.83-0.54,1.95-0.31,2.49,0.5
						C327.09,145.36,327.18,145.7,327.18,146.03z"/>
					
						<radialGradient id="SVGID_36_" cx="364.2176" cy="562.24" r="8.4828" gradientTransform="matrix(1.2724 0 0 1.2471 -131.2909 -558.0983)" gradientUnits="userSpaceOnUse">
						<stop  offset="0.4837" style="stop-color:#FFFF00"/>
						<stop  offset="1" style="stop-color:#FF0000"/>
					</radialGradient>
					<polygon class="st35" points="323.09,144.48 318.94,141.22 323.09,141.22 320.19,135.52 324.55,137.97 326.2,139.59 
						331.82,135.52 327.45,141.83 340.75,135.52 334.93,141.22 345.32,144.48 333.06,144.48 340.53,150.59 329.94,146.72 
						334.51,150.59 326.62,147.53 					"/>
				</g>
				<rect x="257.05" y="126.79" class="st1" width="127.24" height="124.71"/>
			</g>
			<g>
				<g>
					
						<radialGradient id="SVGID_37_" cx="354.7926" cy="683.5" r="9.2411" gradientTransform="matrix(1.2724 0 0 1.2471 -131.2909 -558.0983)" gradientUnits="userSpaceOnUse">
						<stop  offset="0" style="stop-color:#FFFFFF"/>
						<stop  offset="1" style="stop-color:#000000"/>
					</radialGradient>
					<rect x="306.34" y="285.17" class="st36" width="27.58" height="18.21"/>
					
						<radialGradient id="SVGID_38_" cx="355.2126" cy="710.13" r="30.7746" gradientTransform="matrix(1.2724 0 0 1.2471 -131.2909 -558.0983)" gradientUnits="userSpaceOnUse">
						<stop  offset="0" style="stop-color:#FFFFFF"/>
						<stop  offset="1" style="stop-color:#000000"/>
					</radialGradient>
					
						<radialGradient id="SVGID_39_" cx="355.2126" cy="710.13" r="31.2729" gradientTransform="matrix(1.2724 0 0 1.2471 -131.2909 -558.0983)" gradientUnits="userSpaceOnUse">
						<stop  offset="0" style="stop-color:#FFFFFF"/>
						<stop  offset="1" style="stop-color:#000000"/>
					</radialGradient>
					<ellipse class="st37" cx="320.67" cy="327.48" rx="42.32" ry="35.01"/>
					
						<radialGradient id="SVGID_40_" cx="354.7926" cy="675.71" r="8.0311" gradientTransform="matrix(1.2724 0 0 1.2471 -131.2909 -558.0983)" gradientUnits="userSpaceOnUse">
						<stop  offset="0" style="stop-color:#FFFFFF"/>
						<stop  offset="1" style="stop-color:#000000"/>
					</radialGradient>
					<ellipse class="st38" cx="320.14" cy="284.56" rx="13.79" ry="4.23"/>
					
						<radialGradient id="SVGID_41_" cx="356.7426" cy="669.5781" r="5.1654" gradientTransform="matrix(1.2724 0 0 1.2471 -131.2909 -558.0983)" gradientUnits="userSpaceOnUse">
						<stop  offset="0" style="stop-color:#FFFFFF"/>
						<stop  offset="0" style="stop-color:#F7F6F7"/>
						<stop  offset="1" style="stop-color:#000000"/>
					</radialGradient>
					<path class="st39" d="M327.18,270.74c0,0.57-0.28,1.13-0.8,1.47l-5.18,3.35v7.73c0,0.85-0.7,1.55-1.58,1.55
						c-0.87,0-1.58-0.69-1.58-1.55v-9.25c0-0.77,0.57-1.4,1.32-1.52l5.01-3.25c0.83-0.54,1.95-0.31,2.49,0.5
						C327.09,270.07,327.18,270.4,327.18,270.74z"/>
					
						<radialGradient id="SVGID_42_" cx="364.2176" cy="662.24" r="8.4828" gradientTransform="matrix(1.2724 0 0 1.2471 -131.2909 -558.0983)" gradientUnits="userSpaceOnUse">
						<stop  offset="0.4837" style="stop-color:#FFFF00"/>
						<stop  offset="1" style="stop-color:#FF0000"/>
					</radialGradient>
					<polygon class="st40" points="323.09,269.18 318.94,265.93 323.09,265.93 320.19,260.23 324.55,262.67 326.2,264.29 
						331.82,260.23 327.45,266.54 340.75,260.23 334.93,265.93 345.32,269.18 333.06,269.18 340.53,275.29 329.94,271.43 
						334.51,275.29 326.62,272.24 					"/>
				</g>
				<rect x="257.05" y="251.5" class="st1" width="127.24" height="124.71"/>
			</g>
			<g>
				<g>
					
						<radialGradient id="SVGID_43_" cx="354.7926" cy="484.3" r="9.2411" gradientTransform="matrix(1.2724 0 0 1.2471 -131.2909 -558.0983)" gradientUnits="userSpaceOnUse">
						<stop  offset="0" style="stop-color:#FFFFFF"/>
						<stop  offset="1" style="stop-color:#000000"/>
					</radialGradient>
					<rect x="306.34" y="36.75" class="st41" width="27.58" height="18.21"/>
					
						<radialGradient id="SVGID_44_" cx="355.2126" cy="510.93" r="30.7746" gradientTransform="matrix(1.2724 0 0 1.2471 -131.2909 -558.0983)" gradientUnits="userSpaceOnUse">
						<stop  offset="0" style="stop-color:#FFFFFF"/>
						<stop  offset="1" style="stop-color:#000000"/>
					</radialGradient>
					
						<radialGradient id="SVGID_45_" cx="355.2126" cy="510.93" r="31.2729" gradientTransform="matrix(1.2724 0 0 1.2471 -131.2909 -558.0983)" gradientUnits="userSpaceOnUse">
						<stop  offset="0" style="stop-color:#FFFFFF"/>
						<stop  offset="1" style="stop-color:#000000"/>
					</radialGradient>
					<ellipse class="st42" cx="320.67" cy="79.07" rx="42.32" ry="35.01"/>
					
						<radialGradient id="SVGID_46_" cx="354.7926" cy="476.51" r="8.0311" gradientTransform="matrix(1.2724 0 0 1.2471 -131.2909 -558.0983)" gradientUnits="userSpaceOnUse">
						<stop  offset="0" style="stop-color:#FFFFFF"/>
						<stop  offset="1" style="stop-color:#000000"/>
					</radialGradient>
					<ellipse class="st43" cx="320.14" cy="36.14" rx="13.79" ry="4.23"/>
					
						<radialGradient id="SVGID_47_" cx="356.7426" cy="470.3781" r="5.1654" gradientTransform="matrix(1.2724 0 0 1.2471 -131.2909 -558.0983)" gradientUnits="userSpaceOnUse">
						<stop  offset="0" style="stop-color:#FFFFFF"/>
						<stop  offset="0" style="stop-color:#F7F6F7"/>
						<stop  offset="1" style="stop-color:#000000"/>
					</radialGradient>
					<path class="st44" d="M327.18,22.32c0,0.57-0.28,1.13-0.8,1.47l-5.18,3.35v7.73c0,0.85-0.7,1.55-1.58,1.55
						c-0.87,0-1.58-0.69-1.58-1.55v-9.25c0-0.77,0.57-1.4,1.32-1.52l5.01-3.25c0.83-0.54,1.95-0.31,2.49,0.5
						C327.09,21.65,327.18,21.99,327.18,22.32z"/>
					
						<radialGradient id="SVGID_48_" cx="364.2176" cy="463.04" r="8.4828" gradientTransform="matrix(1.2724 0 0 1.2471 -131.2909 -558.0983)" gradientUnits="userSpaceOnUse">
						<stop  offset="0.4837" style="stop-color:#FFFF00"/>
						<stop  offset="1" style="stop-color:#FF0000"/>
					</radialGradient>
					<polygon class="st45" points="323.09,20.77 318.94,17.51 323.09,17.51 320.19,11.81 324.55,14.26 326.2,15.88 331.82,11.81 
						327.45,18.12 340.75,11.81 334.93,17.51 345.32,20.77 333.06,20.77 340.53,26.88 329.94,23.01 334.51,26.88 326.62,23.82 					
						"/>
				</g>
				<rect x="257.05" y="3.08" class="st1" width="127.24" height="124.71"/>
			</g>
		</g>
		<g>
			<g>
				<g>
					
						<radialGradient id="SVGID_49_" cx="755.5926" cy="584.3" r="9.2411" gradientTransform="matrix(1.2724 0 0 1.2471 -131.2909 -558.0983)" gradientUnits="userSpaceOnUse">
						<stop  offset="0" style="stop-color:#FFFFFF"/>
						<stop  offset="1" style="stop-color:#000000"/>
					</radialGradient>
					<rect x="816.31" y="161.46" class="st46" width="27.58" height="18.21"/>
					
						<radialGradient id="SVGID_50_" cx="756.0126" cy="610.93" r="30.7746" gradientTransform="matrix(1.2724 0 0 1.2471 -131.2909 -558.0983)" gradientUnits="userSpaceOnUse">
						<stop  offset="0" style="stop-color:#FFFFFF"/>
						<stop  offset="1" style="stop-color:#000000"/>
					</radialGradient>
					
						<radialGradient id="SVGID_51_" cx="756.0126" cy="610.93" r="31.2729" gradientTransform="matrix(1.2724 0 0 1.2471 -131.2909 -558.0983)" gradientUnits="userSpaceOnUse">
						<stop  offset="0" style="stop-color:#FFFFFF"/>
						<stop  offset="1" style="stop-color:#000000"/>
					</radialGradient>
					<ellipse class="st47" cx="830.63" cy="203.77" rx="42.32" ry="35.01"/>
					
						<radialGradient id="SVGID_52_" cx="755.5926" cy="576.51" r="8.0311" gradientTransform="matrix(1.2724 0 0 1.2471 -131.2909 -558.0983)" gradientUnits="userSpaceOnUse">
						<stop  offset="0" style="stop-color:#FFFFFF"/>
						<stop  offset="1" style="stop-color:#000000"/>
					</radialGradient>
					<ellipse class="st48" cx="830.1" cy="160.85" rx="13.79" ry="4.23"/>
					
						<radialGradient id="SVGID_53_" cx="757.5425" cy="570.3781" r="5.1654" gradientTransform="matrix(1.2724 0 0 1.2471 -131.2909 -558.0983)" gradientUnits="userSpaceOnUse">
						<stop  offset="0" style="stop-color:#FFFFFF"/>
						<stop  offset="0" style="stop-color:#F7F6F7"/>
						<stop  offset="1" style="stop-color:#000000"/>
					</radialGradient>
					<path class="st49" d="M837.15,147.03c0,0.57-0.28,1.13-0.8,1.47l-5.18,3.35v7.73c0,0.85-0.7,1.55-1.58,1.55
						c-0.87,0-1.58-0.69-1.58-1.55v-9.25c0-0.77,0.57-1.4,1.32-1.52l5.01-3.25c0.83-0.54,1.95-0.31,2.49,0.5
						C837.06,146.36,837.15,146.69,837.15,147.03z"/>
					
						<radialGradient id="SVGID_54_" cx="765.0176" cy="563.04" r="8.4828" gradientTransform="matrix(1.2724 0 0 1.2471 -131.2909 -558.0983)" gradientUnits="userSpaceOnUse">
						<stop  offset="0.4837" style="stop-color:#FFFF00"/>
						<stop  offset="1" style="stop-color:#FF0000"/>
					</radialGradient>
					<polygon class="st50" points="833.05,145.47 828.9,142.22 833.05,142.22 830.15,136.52 834.51,138.96 836.17,140.58 
						841.78,136.52 837.42,142.83 850.71,136.52 844.9,142.22 855.28,145.47 843.03,145.47 850.5,151.58 839.91,147.72 
						844.48,151.58 836.59,148.53 					"/>
				</g>
				<rect x="767.02" y="127.79" class="st1" width="127.24" height="124.71"/>
			</g>
			<g>
				<g>
					<path class="st5" d="M859.15,333.47c0,3.65-0.66,6.91-2,9.75c-1.34,2.84-3.24,5.25-5.75,7.21c-2.51,1.96-5.6,3.44-9.29,4.44
						c-3.69,1-7.9,1.51-12.65,1.51c-4.44,0-8.41-0.46-11.91-1.37c-3.51-0.91-6.48-2.26-8.92-4.04c-2.44-1.78-4.31-3.98-5.6-6.58
						c-1.29-2.61-1.92-5.59-1.92-8.94c0-2.66,0.43-5.09,1.34-7.31c0.89-2.22,2.16-4.26,3.82-6.12c1.67-1.87,3.72-3.63,6.16-5.25
						c2.44-1.63,5.19-3.18,8.26-4.66c-2.66-1.35-5.01-2.77-7.05-4.26c-2.04-1.51-3.78-3.13-5.19-4.9c-1.43-1.76-2.49-3.64-3.23-5.64
						s-1.09-4.18-1.09-6.52c0-2.96,0.55-5.72,1.63-8.32c1.08-2.59,2.72-4.84,4.92-6.76c2.19-1.92,5-3.43,8.38-4.53
						c3.4-1.11,7.35-1.66,11.87-1.66c4.35,0,8.12,0.51,11.29,1.53c3.17,1.02,5.79,2.41,7.85,4.18c2.07,1.76,3.59,3.84,4.56,6.24
						c0.97,2.39,1.46,4.96,1.46,7.69c0,2.22-0.36,4.35-1.09,6.39c-0.74,2.05-1.81,3.98-3.23,5.8c-1.43,1.83-3.17,3.53-5.23,5.13
						c-2.07,1.58-4.43,3.07-7.09,4.46c3.14,1.52,5.95,3.09,8.41,4.7c2.46,1.61,4.53,3.33,6.18,5.19c1.67,1.85,2.93,3.8,3.79,5.87
						C858.7,328.74,859.15,331,859.15,333.47z M847.57,334.65c0-2-0.38-3.82-1.13-5.45c-0.75-1.63-1.9-3.14-3.44-4.56
						s-3.44-2.78-5.73-4.12c-2.29-1.32-4.94-2.71-7.95-4.14c-2.79,1.35-5.24,2.71-7.35,4.04c-2.11,1.35-3.84,2.73-5.19,4.18
						c-1.35,1.43-2.38,2.94-3.05,4.53c-0.67,1.58-1.03,3.33-1.03,5.25c0,4.23,1.48,7.48,4.43,9.78c2.95,2.31,7.35,3.45,13.21,3.45
						c5.67,0,9.98-1.17,12.88-3.49S847.57,338.64,847.57,334.65z M844.77,290.16c0-1.83-0.32-3.48-0.97-4.96
						c-0.65-1.47-1.59-2.73-2.82-3.78s-2.79-1.85-4.62-2.38c-1.83-0.54-3.93-0.81-6.29-0.81c-4.8,0-8.41,1.06-10.89,3.19
						c-2.46,2.13-3.7,5.05-3.7,8.74c0,1.7,0.29,3.27,0.89,4.73c0.6,1.46,1.54,2.84,2.79,4.14c1.27,1.31,2.86,2.58,4.8,3.82
						c1.93,1.25,4.24,2.53,6.9,3.88c4.48-2.26,7.93-4.76,10.32-7.51C843.56,296.48,844.77,293.46,844.77,290.16z"/>
				</g>
				<rect x="766.51" y="252" class="st1" width="127.24" height="124.71"/>
			</g>
			<g>
				<g>
					
						<radialGradient id="SVGID_55_" cx="855.5926" cy="584.3" r="9.2411" gradientTransform="matrix(1.2724 0 0 1.2471 -131.2909 -558.0983)" gradientUnits="userSpaceOnUse">
						<stop  offset="0" style="stop-color:#FFFFFF"/>
						<stop  offset="1" style="stop-color:#000000"/>
					</radialGradient>
					<rect x="943.54" y="161.46" class="st51" width="27.58" height="18.21"/>
					
						<radialGradient id="SVGID_56_" cx="856.0126" cy="610.93" r="30.7746" gradientTransform="matrix(1.2724 0 0 1.2471 -131.2909 -558.0983)" gradientUnits="userSpaceOnUse">
						<stop  offset="0" style="stop-color:#FFFFFF"/>
						<stop  offset="1" style="stop-color:#000000"/>
					</radialGradient>
					
						<radialGradient id="SVGID_57_" cx="856.0126" cy="610.93" r="31.2729" gradientTransform="matrix(1.2724 0 0 1.2471 -131.2909 -558.0983)" gradientUnits="userSpaceOnUse">
						<stop  offset="0" style="stop-color:#FFFFFF"/>
						<stop  offset="1" style="stop-color:#000000"/>
					</radialGradient>
					<ellipse class="st52" cx="957.87" cy="203.77" rx="42.32" ry="35.01"/>
					
						<radialGradient id="SVGID_58_" cx="855.5926" cy="576.51" r="8.0311" gradientTransform="matrix(1.2724 0 0 1.2471 -131.2909 -558.0983)" gradientUnits="userSpaceOnUse">
						<stop  offset="0" style="stop-color:#FFFFFF"/>
						<stop  offset="1" style="stop-color:#000000"/>
					</radialGradient>
					<ellipse class="st53" cx="957.34" cy="160.85" rx="13.79" ry="4.23"/>
					
						<radialGradient id="SVGID_59_" cx="857.5425" cy="570.3781" r="5.1654" gradientTransform="matrix(1.2724 0 0 1.2471 -131.2909 -558.0983)" gradientUnits="userSpaceOnUse">
						<stop  offset="0" style="stop-color:#FFFFFF"/>
						<stop  offset="0" style="stop-color:#F7F6F7"/>
						<stop  offset="1" style="stop-color:#000000"/>
					</radialGradient>
					<path class="st54" d="M964.38,147.03c0,0.57-0.28,1.13-0.8,1.47l-5.18,3.35v7.73c0,0.85-0.7,1.55-1.58,1.55
						c-0.87,0-1.58-0.69-1.58-1.55v-9.25c0-0.77,0.57-1.4,1.32-1.52l5.01-3.25c0.83-0.54,1.95-0.31,2.49,0.5
						C964.3,146.36,964.38,146.69,964.38,147.03z"/>
					
						<radialGradient id="SVGID_60_" cx="865.0176" cy="563.04" r="8.4828" gradientTransform="matrix(1.2724 0 0 1.2471 -131.2909 -558.0983)" gradientUnits="userSpaceOnUse">
						<stop  offset="0.4837" style="stop-color:#FFFF00"/>
						<stop  offset="1" style="stop-color:#FF0000"/>
					</radialGradient>
					<polygon class="st55" points="960.29,145.47 956.14,142.22 960.29,142.22 957.39,136.52 961.75,138.96 963.41,140.58 
						969.02,136.52 964.65,142.83 977.95,136.52 972.13,142.22 982.52,145.47 970.26,145.47 977.73,151.58 967.15,147.72 
						971.71,151.58 963.82,148.53 					"/>
				</g>
				<rect x="894.25" y="127.79" class="st1" width="127.24" height="124.71"/>
			</g>
			<g>
				<g>
					
						<radialGradient id="SVGID_61_" cx="855.5926" cy="684.3" r="9.2411" gradientTransform="matrix(1.2724 0 0 1.2471 -131.2909 -558.0983)" gradientUnits="userSpaceOnUse">
						<stop  offset="0" style="stop-color:#FFFFFF"/>
						<stop  offset="1" style="stop-color:#000000"/>
					</radialGradient>
					<rect x="943.54" y="286.17" class="st56" width="27.58" height="18.21"/>
					
						<radialGradient id="SVGID_62_" cx="856.0126" cy="710.93" r="30.7746" gradientTransform="matrix(1.2724 0 0 1.2471 -131.2909 -558.0983)" gradientUnits="userSpaceOnUse">
						<stop  offset="0" style="stop-color:#FFFFFF"/>
						<stop  offset="1" style="stop-color:#000000"/>
					</radialGradient>
					
						<radialGradient id="SVGID_63_" cx="856.0126" cy="710.93" r="31.2729" gradientTransform="matrix(1.2724 0 0 1.2471 -131.2909 -558.0983)" gradientUnits="userSpaceOnUse">
						<stop  offset="0" style="stop-color:#FFFFFF"/>
						<stop  offset="1" style="stop-color:#000000"/>
					</radialGradient>
					<ellipse class="st57" cx="957.87" cy="328.48" rx="42.32" ry="35.01"/>
					
						<radialGradient id="SVGID_64_" cx="855.5926" cy="676.51" r="8.0311" gradientTransform="matrix(1.2724 0 0 1.2471 -131.2909 -558.0983)" gradientUnits="userSpaceOnUse">
						<stop  offset="0" style="stop-color:#FFFFFF"/>
						<stop  offset="1" style="stop-color:#000000"/>
					</radialGradient>
					<ellipse class="st58" cx="957.34" cy="285.56" rx="13.79" ry="4.23"/>
					
						<radialGradient id="SVGID_65_" cx="857.5425" cy="670.3781" r="5.1654" gradientTransform="matrix(1.2724 0 0 1.2471 -131.2909 -558.0983)" gradientUnits="userSpaceOnUse">
						<stop  offset="0" style="stop-color:#FFFFFF"/>
						<stop  offset="0" style="stop-color:#F7F6F7"/>
						<stop  offset="1" style="stop-color:#000000"/>
					</radialGradient>
					<path class="st59" d="M964.38,271.74c0,0.57-0.28,1.13-0.8,1.47l-5.18,3.35v7.73c0,0.85-0.7,1.55-1.58,1.55
						c-0.87,0-1.58-0.69-1.58-1.55v-9.25c0-0.77,0.57-1.4,1.32-1.52l5.01-3.25c0.83-0.54,1.95-0.31,2.49,0.5
						C964.3,271.07,964.38,271.4,964.38,271.74z"/>
					
						<radialGradient id="SVGID_66_" cx="865.0176" cy="663.04" r="8.4828" gradientTransform="matrix(1.2724 0 0 1.2471 -131.2909 -558.0983)" gradientUnits="userSpaceOnUse">
						<stop  offset="0.4837" style="stop-color:#FFFF00"/>
						<stop  offset="1" style="stop-color:#FF0000"/>
					</radialGradient>
					<polygon class="st60" points="960.29,270.18 956.14,266.92 960.29,266.92 957.39,261.23 961.75,263.67 963.41,265.29 
						969.02,261.23 964.65,267.54 977.95,261.23 972.13,266.92 982.52,270.18 970.26,270.18 977.73,276.29 967.15,272.42 
						971.71,276.29 963.82,273.24 					"/>
				</g>
				<rect x="894.25" y="252.5" class="st1" width="127.24" height="124.71"/>
			</g>
			<g>
				<g>
					
						<radialGradient id="SVGID_67_" cx="855.5926" cy="783.5" r="9.2411" gradientTransform="matrix(1.2724 0 0 1.2471 -131.2909 -558.0983)" gradientUnits="userSpaceOnUse">
						<stop  offset="0" style="stop-color:#FFFFFF"/>
						<stop  offset="1" style="stop-color:#000000"/>
					</radialGradient>
					<rect x="943.54" y="409.88" class="st61" width="27.58" height="18.21"/>
					
						<radialGradient id="SVGID_68_" cx="856.0126" cy="810.13" r="30.7746" gradientTransform="matrix(1.2724 0 0 1.2471 -131.2909 -558.0983)" gradientUnits="userSpaceOnUse">
						<stop  offset="0" style="stop-color:#FFFFFF"/>
						<stop  offset="1" style="stop-color:#000000"/>
					</radialGradient>
					
						<radialGradient id="SVGID_69_" cx="856.0126" cy="810.13" r="31.2729" gradientTransform="matrix(1.2724 0 0 1.2471 -131.2909 -558.0983)" gradientUnits="userSpaceOnUse">
						<stop  offset="0" style="stop-color:#FFFFFF"/>
						<stop  offset="1" style="stop-color:#000000"/>
					</radialGradient>
					<ellipse class="st62" cx="957.87" cy="452.19" rx="42.32" ry="35.01"/>
					
						<radialGradient id="SVGID_70_" cx="855.5926" cy="775.71" r="8.0311" gradientTransform="matrix(1.2724 0 0 1.2471 -131.2909 -558.0983)" gradientUnits="userSpaceOnUse">
						<stop  offset="0" style="stop-color:#FFFFFF"/>
						<stop  offset="1" style="stop-color:#000000"/>
					</radialGradient>
					<ellipse class="st63" cx="957.34" cy="409.27" rx="13.79" ry="4.23"/>
					
						<radialGradient id="SVGID_71_" cx="857.5425" cy="769.5781" r="5.1654" gradientTransform="matrix(1.2724 0 0 1.2471 -131.2909 -558.0983)" gradientUnits="userSpaceOnUse">
						<stop  offset="0" style="stop-color:#FFFFFF"/>
						<stop  offset="0" style="stop-color:#F7F6F7"/>
						<stop  offset="1" style="stop-color:#000000"/>
					</radialGradient>
					<path class="st64" d="M964.38,395.45c0,0.57-0.28,1.13-0.8,1.47l-5.18,3.35v7.73c0,0.85-0.7,1.55-1.58,1.55
						c-0.87,0-1.58-0.69-1.58-1.55v-9.25c0-0.77,0.57-1.4,1.32-1.52l5.01-3.25c0.83-0.54,1.95-0.31,2.49,0.5
						C964.3,394.77,964.38,395.11,964.38,395.45z"/>
					
						<radialGradient id="SVGID_72_" cx="865.0176" cy="762.24" r="8.4828" gradientTransform="matrix(1.2724 0 0 1.2471 -131.2909 -558.0983)" gradientUnits="userSpaceOnUse">
						<stop  offset="0.4837" style="stop-color:#FFFF00"/>
						<stop  offset="1" style="stop-color:#FF0000"/>
					</radialGradient>
					<polygon class="st65" points="960.29,393.89 956.14,390.63 960.29,390.63 957.39,384.93 961.75,387.38 963.41,389 
						969.02,384.93 964.65,391.25 977.95,384.93 972.13,390.63 982.52,393.89 970.26,393.89 977.73,400 967.15,396.13 971.71,400 
						963.82,396.94 					"/>
				</g>
				<rect x="894.25" y="376.21" class="st1" width="127.24" height="124.71"/>
			</g>
			<g>
				<g>
					
						<radialGradient id="SVGID_73_" cx="754.7926" cy="783.5" r="9.2411" gradientTransform="matrix(1.2724 0 0 1.2471 -131.2909 -558.0983)" gradientUnits="userSpaceOnUse">
						<stop  offset="0" style="stop-color:#FFFFFF"/>
						<stop  offset="1" style="stop-color:#000000"/>
					</radialGradient>
					<rect x="815.29" y="409.88" class="st66" width="27.58" height="18.21"/>
					
						<radialGradient id="SVGID_74_" cx="755.2126" cy="810.13" r="30.7746" gradientTransform="matrix(1.2724 0 0 1.2471 -131.2909 -558.0983)" gradientUnits="userSpaceOnUse">
						<stop  offset="0" style="stop-color:#FFFFFF"/>
						<stop  offset="1" style="stop-color:#000000"/>
					</radialGradient>
					
						<radialGradient id="SVGID_75_" cx="755.2126" cy="810.13" r="31.2729" gradientTransform="matrix(1.2724 0 0 1.2471 -131.2909 -558.0983)" gradientUnits="userSpaceOnUse">
						<stop  offset="0" style="stop-color:#FFFFFF"/>
						<stop  offset="1" style="stop-color:#000000"/>
					</radialGradient>
					<ellipse class="st67" cx="829.62" cy="452.19" rx="42.32" ry="35.01"/>
					
						<radialGradient id="SVGID_76_" cx="754.7926" cy="775.71" r="8.0311" gradientTransform="matrix(1.2724 0 0 1.2471 -131.2909 -558.0983)" gradientUnits="userSpaceOnUse">
						<stop  offset="0" style="stop-color:#FFFFFF"/>
						<stop  offset="1" style="stop-color:#000000"/>
					</radialGradient>
					<ellipse class="st68" cx="829.08" cy="409.27" rx="13.79" ry="4.23"/>
					
						<radialGradient id="SVGID_77_" cx="756.7426" cy="769.5781" r="5.1654" gradientTransform="matrix(1.2724 0 0 1.2471 -131.2909 -558.0983)" gradientUnits="userSpaceOnUse">
						<stop  offset="0" style="stop-color:#FFFFFF"/>
						<stop  offset="0" style="stop-color:#F7F6F7"/>
						<stop  offset="1" style="stop-color:#000000"/>
					</radialGradient>
					<path class="st69" d="M836.13,395.45c0,0.57-0.28,1.13-0.8,1.47l-5.18,3.35v7.73c0,0.85-0.7,1.55-1.58,1.55
						c-0.87,0-1.58-0.69-1.58-1.55v-9.25c0-0.77,0.57-1.4,1.32-1.52l5.01-3.25c0.83-0.54,1.95-0.31,2.49,0.5
						C836.04,394.77,836.13,395.11,836.13,395.45z"/>
					
						<radialGradient id="SVGID_78_" cx="764.2176" cy="762.24" r="8.4828" gradientTransform="matrix(1.2724 0 0 1.2471 -131.2909 -558.0983)" gradientUnits="userSpaceOnUse">
						<stop  offset="0.4837" style="stop-color:#FFFF00"/>
						<stop  offset="1" style="stop-color:#FF0000"/>
					</radialGradient>
					<polygon class="st70" points="832.03,393.89 827.89,390.63 832.03,390.63 829.13,384.93 833.5,387.38 835.15,389 
						840.76,384.93 836.4,391.25 849.69,384.93 843.88,390.63 854.26,393.89 842.01,393.89 849.48,400 838.89,396.13 843.46,400 
						835.57,396.94 					"/>
				</g>
				<rect x="766" y="376.21" class="st1" width="127.24" height="124.71"/>
			</g>
			<g>
				<g>
					
						<radialGradient id="SVGID_79_" cx="655.5926" cy="683.5" r="9.2411" gradientTransform="matrix(1.2724 0 0 1.2471 -131.2909 -558.0983)" gradientUnits="userSpaceOnUse">
						<stop  offset="0" style="stop-color:#FFFFFF"/>
						<stop  offset="1" style="stop-color:#000000"/>
					</radialGradient>
					<rect x="689.07" y="285.17" class="st71" width="27.58" height="18.21"/>
					
						<radialGradient id="SVGID_80_" cx="656.0126" cy="710.13" r="30.7746" gradientTransform="matrix(1.2724 0 0 1.2471 -131.2909 -558.0983)" gradientUnits="userSpaceOnUse">
						<stop  offset="0" style="stop-color:#FFFFFF"/>
						<stop  offset="1" style="stop-color:#000000"/>
					</radialGradient>
					
						<radialGradient id="SVGID_81_" cx="656.0126" cy="710.13" r="31.2729" gradientTransform="matrix(1.2724 0 0 1.2471 -131.2909 -558.0983)" gradientUnits="userSpaceOnUse">
						<stop  offset="0" style="stop-color:#FFFFFF"/>
						<stop  offset="1" style="stop-color:#000000"/>
					</radialGradient>
					<ellipse class="st72" cx="703.4" cy="327.48" rx="42.32" ry="35.01"/>
					
						<radialGradient id="SVGID_82_" cx="655.5926" cy="675.71" r="8.0311" gradientTransform="matrix(1.2724 0 0 1.2471 -131.2909 -558.0983)" gradientUnits="userSpaceOnUse">
						<stop  offset="0" style="stop-color:#FFFFFF"/>
						<stop  offset="1" style="stop-color:#000000"/>
					</radialGradient>
					<ellipse class="st73" cx="702.86" cy="284.56" rx="13.79" ry="4.23"/>
					
						<radialGradient id="SVGID_83_" cx="657.5425" cy="669.5781" r="5.1654" gradientTransform="matrix(1.2724 0 0 1.2471 -131.2909 -558.0983)" gradientUnits="userSpaceOnUse">
						<stop  offset="0" style="stop-color:#FFFFFF"/>
						<stop  offset="0" style="stop-color:#F7F6F7"/>
						<stop  offset="1" style="stop-color:#000000"/>
					</radialGradient>
					<path class="st74" d="M709.91,270.74c0,0.57-0.28,1.13-0.8,1.47l-5.18,3.35v7.73c0,0.85-0.7,1.55-1.58,1.55
						c-0.87,0-1.58-0.69-1.58-1.55v-9.25c0-0.77,0.57-1.4,1.32-1.52l5.01-3.25c0.83-0.54,1.95-0.31,2.49,0.5
						C709.82,270.07,709.91,270.4,709.91,270.74z"/>
					
						<radialGradient id="SVGID_84_" cx="665.0176" cy="662.24" r="8.4828" gradientTransform="matrix(1.2724 0 0 1.2471 -131.2909 -558.0983)" gradientUnits="userSpaceOnUse">
						<stop  offset="0.4837" style="stop-color:#FFFF00"/>
						<stop  offset="1" style="stop-color:#FF0000"/>
					</radialGradient>
					<polygon class="st75" points="705.81,269.18 701.67,265.93 705.81,265.93 702.91,260.23 707.28,262.67 708.93,264.29 
						714.54,260.23 710.18,266.54 723.47,260.23 717.66,265.93 728.04,269.18 715.79,269.18 723.26,275.29 712.67,271.43 
						717.24,275.29 709.35,272.24 					"/>
				</g>
				<rect x="639.78" y="251.5" class="st1" width="127.24" height="124.71"/>
			</g>
			<g>
				<g>
					
						<radialGradient id="SVGID_85_" cx="655.5926" cy="783.5" r="9.2411" gradientTransform="matrix(1.2724 0 0 1.2471 -131.2909 -558.0983)" gradientUnits="userSpaceOnUse">
						<stop  offset="0" style="stop-color:#FFFFFF"/>
						<stop  offset="1" style="stop-color:#000000"/>
					</radialGradient>
					<rect x="689.07" y="409.88" class="st76" width="27.58" height="18.21"/>
					
						<radialGradient id="SVGID_86_" cx="656.0126" cy="810.13" r="30.7746" gradientTransform="matrix(1.2724 0 0 1.2471 -131.2909 -558.0983)" gradientUnits="userSpaceOnUse">
						<stop  offset="0" style="stop-color:#FFFFFF"/>
						<stop  offset="1" style="stop-color:#000000"/>
					</radialGradient>
					
						<radialGradient id="SVGID_87_" cx="656.0126" cy="810.13" r="31.2729" gradientTransform="matrix(1.2724 0 0 1.2471 -131.2909 -558.0983)" gradientUnits="userSpaceOnUse">
						<stop  offset="0" style="stop-color:#FFFFFF"/>
						<stop  offset="1" style="stop-color:#000000"/>
					</radialGradient>
					<ellipse class="st77" cx="703.4" cy="452.19" rx="42.32" ry="35.01"/>
					
						<radialGradient id="SVGID_88_" cx="655.5926" cy="775.71" r="8.0311" gradientTransform="matrix(1.2724 0 0 1.2471 -131.2909 -558.0983)" gradientUnits="userSpaceOnUse">
						<stop  offset="0" style="stop-color:#FFFFFF"/>
						<stop  offset="1" style="stop-color:#000000"/>
					</radialGradient>
					<ellipse class="st78" cx="702.86" cy="409.27" rx="13.79" ry="4.23"/>
					
						<radialGradient id="SVGID_89_" cx="657.5425" cy="769.5781" r="5.1654" gradientTransform="matrix(1.2724 0 0 1.2471 -131.2909 -558.0983)" gradientUnits="userSpaceOnUse">
						<stop  offset="0" style="stop-color:#FFFFFF"/>
						<stop  offset="0" style="stop-color:#F7F6F7"/>
						<stop  offset="1" style="stop-color:#000000"/>
					</radialGradient>
					<path class="st79" d="M709.91,395.45c0,0.57-0.28,1.13-0.8,1.47l-5.18,3.35v7.73c0,0.85-0.7,1.55-1.58,1.55
						c-0.87,0-1.58-0.69-1.58-1.55v-9.25c0-0.77,0.57-1.4,1.32-1.52l5.01-3.25c0.83-0.54,1.95-0.31,2.49,0.5
						C709.82,394.77,709.91,395.11,709.91,395.45z"/>
					
						<radialGradient id="SVGID_90_" cx="665.0176" cy="762.24" r="8.4828" gradientTransform="matrix(1.2724 0 0 1.2471 -131.2909 -558.0983)" gradientUnits="userSpaceOnUse">
						<stop  offset="0.4837" style="stop-color:#FFFF00"/>
						<stop  offset="1" style="stop-color:#FF0000"/>
					</radialGradient>
					<polygon class="st80" points="705.81,393.89 701.67,390.63 705.81,390.63 702.91,384.93 707.28,387.38 708.93,389 
						714.54,384.93 710.18,391.25 723.47,384.93 717.66,390.63 728.04,393.89 715.79,393.89 723.26,400 712.67,396.13 717.24,400 
						709.35,396.94 					"/>
				</g>
				<rect x="639.78" y="376.21" class="st1" width="127.24" height="124.71"/>
			</g>
			<g>
				<g>
					
						<radialGradient id="SVGID_91_" cx="655.5926" cy="584.3" r="9.2411" gradientTransform="matrix(1.2724 0 0 1.2471 -131.2909 -558.0983)" gradientUnits="userSpaceOnUse">
						<stop  offset="0" style="stop-color:#FFFFFF"/>
						<stop  offset="1" style="stop-color:#000000"/>
					</radialGradient>
					<rect x="689.07" y="161.46" class="st81" width="27.58" height="18.21"/>
					
						<radialGradient id="SVGID_92_" cx="656.0126" cy="610.93" r="30.7746" gradientTransform="matrix(1.2724 0 0 1.2471 -131.2909 -558.0983)" gradientUnits="userSpaceOnUse">
						<stop  offset="0" style="stop-color:#FFFFFF"/>
						<stop  offset="1" style="stop-color:#000000"/>
					</radialGradient>
					
						<radialGradient id="SVGID_93_" cx="656.0126" cy="610.93" r="31.2729" gradientTransform="matrix(1.2724 0 0 1.2471 -131.2909 -558.0983)" gradientUnits="userSpaceOnUse">
						<stop  offset="0" style="stop-color:#FFFFFF"/>
						<stop  offset="1" style="stop-color:#000000"/>
					</radialGradient>
					<ellipse class="st82" cx="703.4" cy="203.77" rx="42.32" ry="35.01"/>
					
						<radialGradient id="SVGID_94_" cx="655.5926" cy="576.51" r="8.0311" gradientTransform="matrix(1.2724 0 0 1.2471 -131.2909 -558.0983)" gradientUnits="userSpaceOnUse">
						<stop  offset="0" style="stop-color:#FFFFFF"/>
						<stop  offset="1" style="stop-color:#000000"/>
					</radialGradient>
					<ellipse class="st83" cx="702.86" cy="160.85" rx="13.79" ry="4.23"/>
					
						<radialGradient id="SVGID_95_" cx="657.5425" cy="570.3781" r="5.1654" gradientTransform="matrix(1.2724 0 0 1.2471 -131.2909 -558.0983)" gradientUnits="userSpaceOnUse">
						<stop  offset="0" style="stop-color:#FFFFFF"/>
						<stop  offset="0" style="stop-color:#F7F6F7"/>
						<stop  offset="1" style="stop-color:#000000"/>
					</radialGradient>
					<path class="st84" d="M709.91,147.03c0,0.57-0.28,1.13-0.8,1.47l-5.18,3.35v7.73c0,0.85-0.7,1.55-1.58,1.55
						c-0.87,0-1.58-0.69-1.58-1.55v-9.25c0-0.77,0.57-1.4,1.32-1.52l5.01-3.25c0.83-0.54,1.95-0.31,2.49,0.5
						C709.82,146.36,709.91,146.69,709.91,147.03z"/>
					
						<radialGradient id="SVGID_96_" cx="665.0176" cy="563.04" r="8.4828" gradientTransform="matrix(1.2724 0 0 1.2471 -131.2909 -558.0983)" gradientUnits="userSpaceOnUse">
						<stop  offset="0.4837" style="stop-color:#FFFF00"/>
						<stop  offset="1" style="stop-color:#FF0000"/>
					</radialGradient>
					<polygon class="st85" points="705.81,145.47 701.67,142.22 705.81,142.22 702.91,136.52 707.28,138.96 708.93,140.58 
						714.54,136.52 710.18,142.83 723.47,136.52 717.66,142.22 728.04,145.47 715.79,145.47 723.26,151.58 712.67,147.72 
						717.24,151.58 709.35,148.53 					"/>
				</g>
				<rect x="639.78" y="127.79" class="st1" width="127.24" height="124.71"/>
			</g>
		</g>
		<g>
			<g>
				<g>
					<rect x="3.78" y="4.77" class="st3" width="119.6" height="116.99"/>
					<polygon class="st4" points="123.39,4.77 3.78,4.77 -0.03,1.04 127.2,1.04 					"/>
				</g>
				<polygon class="st5" points="3.78,121.76 123.39,121.76 127.2,125.49 -0.03,125.49 				"/>
				<polygon class="st4" points="4.04,4.89 4.04,121.89 0.22,125.62 0.22,1.16 				"/>
				<polygon class="st5" points="123.13,121.64 123.13,4.65 127.2,0.91 127.2,125.37 				"/>
			</g>
			<g>
				<g>
					<rect x="3.78" y="377.89" class="st3" width="119.6" height="116.99"/>
					<polygon class="st4" points="123.39,377.89 3.78,377.89 -0.03,374.16 127.2,374.16 					"/>
				</g>
				<polygon class="st5" points="3.78,494.88 123.39,494.88 127.2,498.62 -0.03,498.62 				"/>
				<polygon class="st4" points="4.04,378.02 4.04,495.01 0.22,498.74 0.22,374.28 				"/>
				<polygon class="st5" points="123.13,494.76 123.13,377.77 127.2,374.04 127.2,498.49 				"/>
			</g>
			<g>
				<g>
					<rect x="3.78" y="253.19" class="st3" width="119.6" height="116.99"/>
					<polygon class="st4" points="123.39,253.19 3.78,253.19 -0.03,249.45 127.2,249.45 					"/>
				</g>
				<polygon class="st5" points="3.78,370.18 123.39,370.18 127.2,373.91 -0.03,373.91 				"/>
				<polygon class="st4" points="4.04,253.31 4.04,370.3 0.22,374.04 0.22,249.58 				"/>
				<polygon class="st5" points="123.13,370.05 123.13,253.06 127.2,249.33 127.2,373.79 				"/>
			</g>
			<g>
				<g>
					<rect x="3.78" y="128.48" class="st3" width="119.6" height="116.99"/>
					<polygon class="st4" points="123.39,128.48 3.78,128.48 -0.03,124.75 127.2,124.75 					"/>
				</g>
				<polygon class="st5" points="3.78,245.47 123.39,245.47 127.2,249.2 -0.03,249.2 				"/>
				<polygon class="st4" points="4.04,128.6 4.04,245.59 0.22,249.33 0.22,124.87 				"/>
				<polygon class="st5" points="123.13,245.35 123.13,128.36 127.2,124.62 127.2,249.08 				"/>
			</g>
		</g>
		<g>
			<g>
				<path class="st2" d="M230.24,103.97c0,0.86-0.08,1.63-0.24,2.29c-0.17,0.67-0.38,1.23-0.67,1.68c-0.28,0.45-0.67,0.79-1.15,1
					c-0.48,0.21-1.01,0.32-1.59,0.32h-68.58c-0.89,0-1.68-0.09-2.34-0.26c-0.67-0.16-1.25-0.44-1.73-0.84
					c-0.48-0.37-0.83-0.94-1.06-1.65c-0.23-0.71-0.33-1.6-0.33-2.66c0-0.95,0.05-1.8,0.15-2.51c0.1-0.71,0.32-1.35,0.64-1.91
					c0.33-0.55,0.74-1.11,1.23-1.65c0.5-0.55,1.13-1.13,1.93-1.76l24.81-19.09c5.73-4.4,10.33-8.34,13.79-11.85
					c3.46-3.49,6.13-6.67,8-9.54c1.88-2.87,3.1-5.47,3.7-7.82c0.59-2.34,0.89-4.55,0.89-6.61s-0.47-4-1.39-5.85
					c-0.93-1.85-2.25-3.47-4.01-4.84c-1.74-1.38-3.94-2.49-6.59-3.29c-2.65-0.81-5.67-1.22-9.11-1.22c-4.02,0-7.65,0.41-10.84,1.22
					c-3.21,0.81-6.01,1.7-8.41,2.66s-4.42,1.85-6.03,2.66c-1.62,0.82-2.82,1.22-3.61,1.22c-0.46,0-0.88-0.09-1.23-0.29
					c-0.37-0.2-0.66-0.5-0.89-0.94c-0.23-0.44-0.42-1-0.55-1.72c-0.13-0.71-0.19-1.57-0.19-2.58c0-0.71,0.03-1.35,0.09-1.86
					c0.06-0.52,0.18-0.99,0.33-1.36c0.17-0.37,0.37-0.74,0.62-1.07c0.25-0.34,0.78-0.76,1.54-1.26c0.76-0.5,2.1-1.18,3.98-2.05
					c1.9-0.86,4.26-1.71,7.1-2.54c2.84-0.84,5.98-1.55,9.4-2.12c3.41-0.57,7.01-0.86,10.79-0.86c6.02,0,11.27,0.64,15.78,1.91
					c4.52,1.27,8.24,3.01,11.22,5.2c2.98,2.21,5.19,4.76,6.67,7.68s2.2,6.04,2.2,9.33c0,2.97-0.36,5.92-1.06,8.87
					c-0.7,2.94-2.2,6.12-4.47,9.54c-2.28,3.42-5.55,7.23-9.84,11.42c-4.29,4.19-9.98,9.02-17.08,14.47l-19.66,15.34h54.01
					c0.51,0,1.01,0.1,1.49,0.32c0.48,0.21,0.89,0.55,1.25,0.97c0.36,0.42,0.61,0.97,0.78,1.62
					C230.17,102.35,230.24,103.11,230.24,103.97z"/>
			</g>
			<g>
				<rect x="127.78" y="2.08" class="st1" width="127.24" height="124.71"/>
			</g>
		</g>
		<g>
			<g>
				<path class="st0" d="M867.75,80.64c0,3.79-0.94,7.21-2.84,10.25c-1.9,3.04-4.61,5.65-8.14,7.82c-3.54,2.17-7.9,3.84-13.09,5.01
					c-5.19,1.17-11.04,1.76-17.57,1.76c-3.97,0-7.67-0.22-11.12-0.67c-3.45-0.45-6.51-0.97-9.2-1.6c-2.68-0.61-4.91-1.26-6.68-1.91
					c-1.77-0.66-2.89-1.13-3.35-1.43c-0.46-0.29-0.81-0.6-1.06-0.9s-0.46-0.66-0.65-1.08s-0.32-0.95-0.41-1.56
					c-0.09-0.61-0.14-1.37-0.14-2.27c0-1.53,0.22-2.59,0.65-3.19s1.07-0.9,1.87-0.9c0.56,0,1.67,0.34,3.33,1.02
					c1.67,0.69,3.79,1.42,6.39,2.21c2.6,0.79,5.62,1.53,9.11,2.21c3.47,0.69,7.34,1.02,11.59,1.02c4.12,0,7.76-0.36,10.89-1.08
					c3.13-0.72,5.76-1.75,7.89-3.07c2.12-1.32,3.73-2.88,4.78-4.69c1.06-1.81,1.59-3.78,1.59-5.91c0-2.34-0.69-4.45-2.04-6.32
					c-1.35-1.87-3.35-3.49-5.95-4.86c-2.61-1.36-5.83-2.41-9.64-3.13c-3.8-0.72-8.14-1.08-12.99-1.08h-11.59
					c-0.51,0-0.99-0.07-1.46-0.22c-0.47-0.15-0.88-0.4-1.23-0.74c-0.34-0.34-0.64-0.79-0.85-1.35c-0.23-0.55-0.33-1.28-0.33-2.17
					c0-0.81,0.09-1.48,0.27-2.01c0.19-0.54,0.43-0.96,0.78-1.28c0.33-0.32,0.71-0.55,1.15-0.7c0.43-0.15,0.92-0.22,1.46-0.22h10.34
					c4.02,0,7.65-0.36,10.84-1.08c3.21-0.72,5.92-1.77,8.14-3.13c2.23-1.36,3.94-2.99,5.13-4.89c1.18-1.9,1.78-4.02,1.78-6.36
					c0-1.7-0.41-3.33-1.18-4.89c-0.79-1.56-1.98-2.91-3.56-4.05c-1.59-1.15-3.61-2.06-6.08-2.72c-2.47-0.66-5.32-0.99-8.56-0.99
					c-3.54,0-6.78,0.37-9.75,1.12c-2.96,0.74-5.6,1.55-7.91,2.39c-2.32,0.85-4.24,1.65-5.76,2.39s-2.6,1.12-3.21,1.12
					c-0.43,0-0.81-0.05-1.15-0.15c-0.33-0.11-0.61-0.32-0.83-0.64c-0.22-0.32-0.37-0.77-0.46-1.35s-0.14-1.32-0.14-2.27
					c0-0.64,0.03-1.2,0.09-1.7c0.05-0.49,0.19-0.91,0.37-1.28c0.19-0.36,0.39-0.7,0.65-0.99c0.24-0.3,0.65-0.65,1.23-1.05
					c0.57-0.4,1.76-0.99,3.52-1.76c1.77-0.77,3.94-1.52,6.54-2.27c2.6-0.74,5.59-1.37,8.97-1.88c3.38-0.51,7.02-0.77,10.94-0.77
					c5.48,0,10.31,0.5,14.45,1.47c4.15,0.97,7.61,2.36,10.4,4.15c2.77,1.8,4.85,3.93,6.22,6.42s2.06,5.25,2.06,8.27
					c0,2.59-0.48,5.01-1.46,7.26c-0.98,2.23-2.4,4.22-4.3,5.94c-1.9,1.73-4.21,3.19-6.96,4.41c-2.75,1.22-5.92,2.06-9.52,2.52v0.12
					c4.08,0.3,7.83,1.01,11.21,2.14c3.38,1.12,6.3,2.54,8.74,4.24c2.43,1.7,4.35,3.69,5.73,5.97
					C867.06,75.6,867.75,78.04,867.75,80.64z"/>
			</g>
			<rect x="767.02" y="2.08" class="st1" width="127.24" height="124.71"/>
		</g>
		<g>
			<g>
				<path class="st2" d="M358.5,477.09c0,0.86-0.08,1.63-0.24,2.29c-0.17,0.67-0.38,1.23-0.67,1.68c-0.28,0.45-0.67,0.79-1.15,1
					c-0.48,0.21-1.01,0.32-1.59,0.32h-68.58c-0.89,0-1.68-0.09-2.34-0.26c-0.67-0.16-1.25-0.44-1.73-0.84
					c-0.48-0.37-0.83-0.94-1.06-1.65c-0.23-0.71-0.33-1.6-0.33-2.66c0-0.95,0.05-1.8,0.15-2.51c0.1-0.71,0.32-1.35,0.64-1.91
					c0.33-0.55,0.74-1.11,1.23-1.65c0.5-0.55,1.13-1.13,1.93-1.76l24.81-19.09c5.73-4.4,10.33-8.34,13.79-11.85
					c3.46-3.49,6.13-6.67,8-9.54c1.88-2.87,3.1-5.47,3.7-7.82c0.59-2.34,0.89-4.55,0.89-6.61c0-2.06-0.47-4-1.39-5.85
					c-0.93-1.85-2.25-3.47-4.01-4.84c-1.74-1.38-3.94-2.49-6.59-3.29c-2.65-0.81-5.67-1.22-9.11-1.22c-4.02,0-7.65,0.41-10.84,1.22
					c-3.21,0.81-6.01,1.7-8.41,2.66c-2.4,0.96-4.42,1.85-6.03,2.66c-1.62,0.82-2.82,1.22-3.61,1.22c-0.46,0-0.88-0.09-1.23-0.29
					c-0.37-0.2-0.66-0.5-0.89-0.94c-0.23-0.44-0.42-1-0.55-1.72c-0.13-0.71-0.19-1.57-0.19-2.58c0-0.71,0.03-1.35,0.09-1.86
					c0.06-0.52,0.18-0.99,0.33-1.36c0.17-0.37,0.37-0.74,0.62-1.07c0.25-0.34,0.78-0.76,1.54-1.26c0.76-0.5,2.1-1.18,3.98-2.05
					c1.9-0.86,4.26-1.71,7.1-2.54c2.84-0.84,5.98-1.55,9.4-2.12c3.41-0.57,7.01-0.86,10.79-0.86c6.02,0,11.27,0.64,15.78,1.91
					c4.52,1.27,8.24,3.01,11.22,5.2c2.98,2.21,5.19,4.76,6.67,7.68c1.48,2.92,2.2,6.04,2.2,9.33c0,2.97-0.36,5.92-1.06,8.87
					s-2.2,6.12-4.47,9.54c-2.28,3.42-5.55,7.23-9.84,11.42s-9.98,9.02-17.08,14.47l-19.66,15.34h54.01c0.51,0,1.01,0.1,1.49,0.32
					c0.48,0.21,0.89,0.55,1.25,0.97c0.36,0.42,0.61,0.97,0.78,1.62C358.42,475.47,358.5,476.23,358.5,477.09z"/>
			</g>
			<g>
				<rect x="256.03" y="375.21" class="st1" width="127.24" height="124.71"/>
			</g>
		</g>
		<g>
			<g>
				<rect x="131.02" y="377.89" class="st3" width="119.6" height="116.99"/>
				<polygon class="st4" points="250.62,377.89 131.02,377.89 127.2,374.16 254.44,374.16 				"/>
			</g>
			<polygon class="st5" points="131.02,494.88 250.62,494.88 254.44,498.62 127.2,498.62 			"/>
			<polygon class="st4" points="131.28,378.02 131.28,495.01 127.46,498.74 127.46,374.28 			"/>
			<polygon class="st5" points="250.37,494.76 250.37,377.77 254.44,374.04 254.44,498.49 			"/>
		</g>
		<g>
			<g>
				<path class="st0" d="M484,453.76c0,3.79-0.94,7.21-2.84,10.25c-1.9,3.04-4.61,5.65-8.14,7.82s-7.9,3.84-13.09,5.01
					s-11.04,1.76-17.57,1.76c-3.97,0-7.67-0.22-11.12-0.67c-3.45-0.45-6.51-0.97-9.2-1.6c-2.68-0.61-4.91-1.26-6.68-1.91
					c-1.77-0.66-2.89-1.13-3.35-1.43c-0.46-0.29-0.81-0.6-1.06-0.9c-0.24-0.3-0.46-0.66-0.65-1.08c-0.19-0.42-0.32-0.95-0.41-1.56
					c-0.09-0.61-0.14-1.37-0.14-2.27c0-1.53,0.22-2.59,0.65-3.19c0.43-0.6,1.07-0.9,1.87-0.9c0.56,0,1.67,0.34,3.33,1.02
					c1.67,0.69,3.79,1.42,6.39,2.21c2.6,0.79,5.62,1.53,9.11,2.21c3.47,0.69,7.34,1.02,11.59,1.02c4.12,0,7.76-0.36,10.89-1.08
					c3.13-0.72,5.76-1.75,7.89-3.07c2.12-1.32,3.73-2.88,4.78-4.69s1.59-3.78,1.59-5.91c0-2.34-0.69-4.45-2.04-6.32
					c-1.35-1.87-3.35-3.49-5.95-4.86c-2.61-1.36-5.83-2.41-9.64-3.13c-3.8-0.72-8.14-1.08-12.99-1.08h-11.59
					c-0.51,0-0.99-0.07-1.46-0.22c-0.47-0.15-0.88-0.4-1.23-0.74c-0.34-0.34-0.64-0.79-0.85-1.35c-0.23-0.55-0.33-1.28-0.33-2.17
					c0-0.81,0.09-1.48,0.27-2.01c0.19-0.54,0.43-0.96,0.78-1.28c0.33-0.32,0.71-0.55,1.15-0.7c0.43-0.15,0.92-0.22,1.46-0.22h10.34
					c4.02,0,7.65-0.36,10.84-1.08c3.21-0.72,5.92-1.77,8.14-3.13c2.23-1.36,3.94-2.99,5.13-4.89c1.18-1.9,1.78-4.02,1.78-6.36
					c0-1.7-0.41-3.33-1.18-4.89c-0.79-1.56-1.98-2.91-3.56-4.05c-1.59-1.15-3.61-2.06-6.08-2.72c-2.47-0.66-5.32-0.99-8.56-0.99
					c-3.54,0-6.78,0.37-9.75,1.12c-2.96,0.74-5.6,1.55-7.91,2.39c-2.32,0.85-4.24,1.65-5.76,2.39c-1.53,0.75-2.6,1.12-3.21,1.12
					c-0.43,0-0.81-0.05-1.15-0.15c-0.33-0.11-0.61-0.32-0.83-0.64c-0.22-0.32-0.37-0.77-0.46-1.35c-0.09-0.57-0.14-1.32-0.14-2.27
					c0-0.64,0.03-1.2,0.09-1.7c0.05-0.49,0.19-0.91,0.37-1.28c0.19-0.36,0.39-0.7,0.65-0.99c0.24-0.3,0.65-0.65,1.23-1.05
					c0.57-0.4,1.76-0.99,3.52-1.76c1.77-0.77,3.94-1.52,6.54-2.27c2.6-0.74,5.59-1.37,8.97-1.88s7.02-0.77,10.94-0.77
					c5.48,0,10.31,0.5,14.45,1.47s7.61,2.36,10.4,4.15c2.77,1.8,4.85,3.93,6.22,6.42s2.06,5.25,2.06,8.27
					c0,2.59-0.48,5.01-1.46,7.26c-0.98,2.23-2.4,4.22-4.3,5.94c-1.9,1.73-4.21,3.19-6.96,4.41c-2.75,1.22-5.92,2.06-9.52,2.52v0.12
					c4.08,0.3,7.83,1.01,11.21,2.14c3.38,1.12,6.3,2.54,8.74,4.24c2.43,1.7,4.35,3.69,5.73,5.97
					C483.32,448.72,484,451.17,484,453.76z"/>
			</g>
			<rect x="383.27" y="375.21" class="st1" width="127.24" height="124.71"/>
		</g>
		<g>
			<g>
				<path class="st86" d="M603.02,455.93c0,1.56-0.2,2.78-0.62,3.68c-0.42,0.9-0.99,1.35-1.74,1.35h-9.1v19.23
					c0,0.37-0.09,0.7-0.25,0.96c-0.17,0.26-0.47,0.49-0.9,0.67s-0.98,0.32-1.67,0.42s-1.57,0.14-2.63,0.14
					c-1.03,0-1.88-0.05-2.57-0.14c-0.69-0.1-1.23-0.24-1.64-0.42c-0.41-0.19-0.69-0.41-0.84-0.67c-0.15-0.26-0.23-0.57-0.23-0.96
					v-19.24h-33.01c-0.5,0-0.9-0.07-1.23-0.21s-0.62-0.4-0.89-0.77c-0.27-0.37-0.46-0.92-0.56-1.62c-0.1-0.71-0.15-1.62-0.15-2.76
					c0-0.9,0.03-1.7,0.06-2.41c0.04-0.71,0.13-1.36,0.24-1.95c0.13-0.59,0.29-1.16,0.5-1.7c0.2-0.54,0.46-1.12,0.74-1.73
					l28.76-55.56c0.22-0.37,0.52-0.71,0.92-0.99c0.41-0.29,0.92-0.52,1.55-0.71c0.64-0.19,1.43-0.31,2.35-0.39
					c0.93-0.07,2.04-0.1,3.31-0.1c1.4,0,2.62,0.06,3.65,0.17c1.04,0.11,1.87,0.27,2.51,0.46c0.64,0.19,1.12,0.44,1.46,0.74
					c0.34,0.31,0.51,0.67,0.51,1.1v58.39h9.1c0.7,0,1.27,0.41,1.72,1.23C602.8,452.98,603.02,454.23,603.02,455.93z M580.83,400.72
					h-0.13l-25.94,50.19h26.06v-50.19H580.83z"/>
			</g>
			<rect x="511.02" y="375.71" class="st1" width="127.24" height="124.71"/>
		</g>
		<g>
			<g>
				<path class="st86" d="M731.27,82.81c0,1.56-0.2,2.78-0.62,3.68c-0.42,0.9-0.99,1.35-1.74,1.35h-9.1v19.23
					c0,0.37-0.09,0.7-0.25,0.96c-0.17,0.26-0.47,0.49-0.9,0.67c-0.43,0.19-0.98,0.32-1.67,0.42c-0.69,0.1-1.57,0.14-2.63,0.14
					c-1.03,0-1.88-0.05-2.57-0.14c-0.69-0.1-1.23-0.24-1.64-0.42c-0.41-0.19-0.69-0.41-0.84-0.67c-0.15-0.26-0.23-0.57-0.23-0.96
					V87.82h-33.01c-0.5,0-0.9-0.07-1.23-0.21c-0.33-0.14-0.62-0.4-0.89-0.77c-0.27-0.37-0.46-0.92-0.56-1.62
					c-0.1-0.71-0.15-1.62-0.15-2.76c0-0.9,0.03-1.7,0.06-2.41c0.04-0.71,0.13-1.36,0.24-1.95c0.13-0.59,0.29-1.16,0.5-1.7
					c0.2-0.54,0.46-1.12,0.74-1.73l28.76-55.56c0.22-0.37,0.52-0.71,0.92-0.99c0.41-0.29,0.92-0.52,1.55-0.71
					c0.64-0.19,1.43-0.31,2.35-0.39c0.93-0.07,2.04-0.1,3.31-0.1c1.4,0,2.62,0.06,3.65,0.17c1.04,0.11,1.87,0.27,2.51,0.46
					c0.64,0.19,1.12,0.44,1.46,0.74c0.34,0.31,0.51,0.67,0.51,1.1v58.39h9.1c0.7,0,1.27,0.41,1.72,1.23
					C731.06,79.85,731.27,81.11,731.27,82.81z M709.08,27.6h-0.13l-25.94,50.19h26.06V27.6H709.08z"/>
			</g>
			<rect x="639.27" y="2.58" class="st1" width="127.24" height="124.71"/>
		</g>
	</g>
</g>
</svg>
