<?xml version="1.0" encoding="utf-8"?>
<!-- Generator: Adobe Illustrator 23.0.2, SVG Export Plug-In . SVG Version: 6.00 Build 0)  -->
<svg version="1.1" id="Layer_1" xmlns="http://www.w3.org/2000/svg" xmlns:xlink="http://www.w3.org/1999/xlink" x="0px" y="0px"
	 viewBox="0 0 100 100" style="enable-background:new 0 0 100 100;" xml:space="preserve">
<style type="text/css">
	.st0{fill:#8F272D;}
	.st1{fill:none;stroke:#000000;stroke-width:4;stroke-miterlimit:10;}
</style>
<g>
	<path class="st0" d="M70.19,58.82c0,3.43-0.58,6.48-1.73,9.15c-1.15,2.67-2.78,4.92-4.89,6.75c-2.11,1.83-4.62,3.22-7.54,4.18
		c-2.92,0.96-6.15,1.44-9.71,1.44c-1.98,0-3.86-0.14-5.64-0.42c-1.78-0.28-3.36-0.62-4.74-1.04c-1.39-0.41-2.52-0.81-3.41-1.21
		c-0.89-0.4-1.46-0.71-1.71-0.94c-0.25-0.23-0.42-0.45-0.52-0.64c-0.1-0.2-0.19-0.44-0.27-0.72c-0.08-0.28-0.14-0.64-0.17-1.06
		c-0.04-0.42-0.05-0.94-0.05-1.53c0-0.56,0.02-1.06,0.07-1.51c0.05-0.45,0.14-0.81,0.27-1.09c0.13-0.28,0.29-0.49,0.47-0.62
		c0.18-0.13,0.39-0.2,0.62-0.2c0.33,0,0.84,0.21,1.53,0.62c0.69,0.41,1.62,0.86,2.79,1.34c1.17,0.47,2.62,0.93,4.35,1.36
		c1.73,0.43,3.78,0.64,6.15,0.64c2.21,0,4.23-0.26,6.08-0.79c1.85-0.52,3.43-1.35,4.77-2.47c1.34-1.12,2.38-2.53,3.14-4.23
		c0.76-1.7,1.14-3.77,1.14-6.2c0-2.05-0.32-3.84-0.96-5.42c-0.64-1.56-1.63-2.87-2.97-3.91c-1.34-1.04-3.02-1.81-5.07-2.32
		c-2.05-0.51-4.48-0.76-7.31-0.76c-2.01,0-3.74,0.1-5.19,0.3s-2.8,0.3-4.06,0.3c-0.92,0-1.58-0.21-1.98-0.64
		c-0.4-0.42-0.59-1.25-0.59-2.47V18.63c0-1.09,0.25-1.9,0.76-2.42c0.51-0.52,1.25-0.79,2.2-0.79h28.33c0.26,0,0.52,0.07,0.76,0.22
		c0.25,0.15,0.45,0.37,0.62,0.67c0.16,0.3,0.29,0.67,0.37,1.14c0.08,0.46,0.12,1.01,0.12,1.63c0,1.19-0.16,2.11-0.47,2.77
		c-0.32,0.66-0.76,0.99-1.32,0.99H41.55v17.95c1.11-0.16,2.24-0.26,3.41-0.3c1.16-0.04,2.5-0.05,4.03-0.05
		c3.53,0,6.61,0.44,9.24,1.31c2.63,0.87,4.84,2.11,6.6,3.71c1.76,1.6,3.09,3.53,4,5.81C69.74,53.53,70.19,56.05,70.19,58.82z"/>
</g>
<rect class="st1" width="100" height="100"/>
</svg>
