<?xml version="1.0" encoding="utf-8"?>
<!-- Generator: Adobe Illustrator 23.0.2, SVG Export Plug-In . SVG Version: 6.00 Build 0)  -->
<svg version="1.1" id="Layer_1" xmlns="http://www.w3.org/2000/svg" xmlns:xlink="http://www.w3.org/1999/xlink" x="0px" y="0px"
	 viewBox="0 0 100 100" style="enable-background:new 0 0 100 100;" xml:space="preserve">
<style type="text/css">
	.st0{fill:none;stroke:#000000;stroke-width:4;stroke-miterlimit:10;}
	.st1{opacity:0.61;}
	.st2{fill:url(#SVGID_1_);stroke:#000000;stroke-miterlimit:10;}
	.st3{fill:url(#SVGID_2_);stroke:url(#SVGID_3_);stroke-miterlimit:10;}
	.st4{fill:url(#SVGID_4_);stroke:#000000;stroke-miterlimit:10;}
	.st5{fill:url(#SVGID_5_);stroke:#000000;stroke-miterlimit:10;}
	.st6{fill:url(#SVGID_6_);stroke:#000000;stroke-miterlimit:10;}
	.st7{opacity:0.88;}
	.st8{fill:#FF0000;stroke:#000000;stroke-miterlimit:10;}
	.st9{stroke:#000000;stroke-miterlimit:10;}
</style>
<rect class="st0" width="100" height="100"/>
<g class="st1">
	
		<radialGradient id="SVGID_1_" cx="49.58" cy="35.3" r="9.2411" gradientTransform="matrix(1 0 0 1 0 2)" gradientUnits="userSpaceOnUse">
		<stop  offset="0" style="stop-color:#FFFFFF"/>
		<stop  offset="1" style="stop-color:#000000"/>
	</radialGradient>
	<rect x="38.74" y="30" class="st2" width="21.68" height="14.6"/>
	
		<radialGradient id="SVGID_2_" cx="50" cy="61.93" r="30.7746" gradientTransform="matrix(1 0 0 1 0 2)" gradientUnits="userSpaceOnUse">
		<stop  offset="0" style="stop-color:#FFFFFF"/>
		<stop  offset="1" style="stop-color:#000000"/>
	</radialGradient>
	
		<radialGradient id="SVGID_3_" cx="50" cy="61.93" r="31.2729" gradientTransform="matrix(1 0 0 1 0 2)" gradientUnits="userSpaceOnUse">
		<stop  offset="0" style="stop-color:#FFFFFF"/>
		<stop  offset="1" style="stop-color:#000000"/>
	</radialGradient>
	<ellipse class="st3" cx="50" cy="63.93" rx="33.26" ry="28.07"/>
	
		<radialGradient id="SVGID_4_" cx="49.58" cy="27.51" r="8.0311" gradientTransform="matrix(1 0 0 1 0 2)" gradientUnits="userSpaceOnUse">
		<stop  offset="0" style="stop-color:#FFFFFF"/>
		<stop  offset="1" style="stop-color:#000000"/>
	</radialGradient>
	<ellipse class="st4" cx="49.58" cy="29.51" rx="10.84" ry="3.39"/>
	
		<radialGradient id="SVGID_5_" cx="51.53" cy="21.3781" r="5.1654" gradientTransform="matrix(1 0 0 1 0 2)" gradientUnits="userSpaceOnUse">
		<stop  offset="0" style="stop-color:#FFFFFF"/>
		<stop  offset="0" style="stop-color:#F7F6F7"/>
		<stop  offset="1" style="stop-color:#000000"/>
	</radialGradient>
	<path class="st5" d="M55.12,18.43c0,0.46-0.22,0.91-0.63,1.18l-4.07,2.69v6.2c0,0.68-0.55,1.24-1.24,1.24
		c-0.68,0-1.24-0.55-1.24-1.24v-7.42c0-0.62,0.45-1.12,1.04-1.22l3.94-2.61c0.65-0.43,1.53-0.25,1.96,0.4
		C55.05,17.89,55.12,18.16,55.12,18.43z"/>
	
		<radialGradient id="SVGID_6_" cx="59.005" cy="14.04" r="8.4828" gradientTransform="matrix(1 0 0 1 0 2)" gradientUnits="userSpaceOnUse">
		<stop  offset="0.4837" style="stop-color:#FFFF00"/>
		<stop  offset="1" style="stop-color:#FF0000"/>
	</radialGradient>
	<polygon class="st6" points="51.9,17.18 48.64,14.57 51.9,14.57 49.62,10 53.05,11.96 54.35,13.26 58.76,10 55.33,15.06 65.78,10 
		61.21,14.57 69.37,17.18 59.74,17.18 65.61,22.08 57.29,18.98 60.88,22.08 54.68,19.63 	"/>
</g>
<g class="st7">
	<polygon class="st8" points="69.5,35.25 69.5,58 40.75,46.62 12,35.25 40.75,23.87 69.5,12.5 	"/>
	<rect x="69.5" y="11.5" class="st9" width="3" height="85"/>
</g>
</svg>
