<?xml version="1.0" encoding="utf-8"?>
<!-- Generator: Adobe Illustrator 23.0.2, SVG Export Plug-In . SVG Version: 6.00 Build 0)  -->
<svg version="1.1" id="Layer_1" xmlns="http://www.w3.org/2000/svg" xmlns:xlink="http://www.w3.org/1999/xlink" x="0px" y="0px"
	 viewBox="0 0 100 100" style="enable-background:new 0 0 100 100;" xml:space="preserve">
<style type="text/css">
	.st0{fill:#662D91;}
	.st1{fill:none;stroke:#000000;stroke-width:4;stroke-miterlimit:10;}
</style>
<g>
	<path class="st0" d="M72.81,64.83c0,1.25-0.16,2.23-0.49,2.95c-0.33,0.72-0.78,1.08-1.37,1.08h-7.15v15.42
		c0,0.3-0.07,0.56-0.2,0.77c-0.13,0.21-0.37,0.39-0.71,0.54c-0.34,0.15-0.77,0.26-1.31,0.34c-0.54,0.08-1.23,0.11-2.07,0.11
		c-0.81,0-1.48-0.04-2.02-0.11c-0.54-0.08-0.97-0.19-1.29-0.34c-0.32-0.15-0.54-0.33-0.66-0.54c-0.12-0.21-0.18-0.46-0.18-0.77
		V68.85H29.42c-0.39,0-0.71-0.06-0.97-0.17c-0.26-0.11-0.49-0.32-0.7-0.62c-0.21-0.3-0.36-0.74-0.44-1.3
		c-0.08-0.57-0.12-1.3-0.12-2.21c0-0.72,0.02-1.36,0.05-1.93c0.03-0.57,0.1-1.09,0.19-1.56c0.1-0.47,0.23-0.93,0.39-1.36
		c0.16-0.43,0.36-0.9,0.58-1.39L51,13.76c0.17-0.3,0.41-0.57,0.72-0.79c0.32-0.23,0.72-0.42,1.22-0.57c0.5-0.15,1.12-0.25,1.85-0.31
		c0.73-0.06,1.6-0.08,2.6-0.08c1.1,0,2.06,0.05,2.87,0.14c0.82,0.09,1.47,0.22,1.97,0.37c0.5,0.15,0.88,0.35,1.15,0.59
		c0.27,0.25,0.4,0.54,0.4,0.88v46.82h7.15c0.55,0,1,0.33,1.35,0.99C72.64,62.46,72.81,63.47,72.81,64.83z M55.37,20.56h-0.1
		L34.88,60.81h20.48V20.56z"/>
</g>
<rect x="0.5" y="0.5" class="st1" width="100" height="100"/>
</svg>
