<?xml version="1.0" encoding="utf-8"?>
<!-- Generator: Adobe Illustrator 23.0.2, SVG Export Plug-In . SVG Version: 6.00 Build 0)  -->
<svg version="1.1" id="Layer_1" xmlns="http://www.w3.org/2000/svg" xmlns:xlink="http://www.w3.org/1999/xlink" x="0px" y="0px"
	 viewBox="0 0 100 100" style="enable-background:new 0 0 100 100;" xml:space="preserve">
<style type="text/css">
	.st0{fill:#0000FF;}
	.st1{fill:none;stroke:#000000;stroke-width:4;stroke-miterlimit:10;}
</style>
<g>
	<path class="st0" d="M67.95,78.12c0,0.6-0.05,1.11-0.14,1.53c-0.09,0.41-0.22,0.75-0.38,1c-0.16,0.25-0.34,0.44-0.55,0.55
		c-0.21,0.11-0.42,0.17-0.64,0.17H34c-0.22,0-0.43-0.05-0.62-0.17c-0.19-0.11-0.37-0.29-0.55-0.55c-0.18-0.25-0.31-0.59-0.41-1
		c-0.1-0.41-0.14-0.92-0.14-1.53c0-0.57,0.05-1.06,0.14-1.48c0.1-0.41,0.21-0.75,0.36-1.03c0.14-0.27,0.32-0.48,0.52-0.62
		c0.21-0.14,0.44-0.21,0.69-0.21h12.87V27.86l-11.92,7.1c-0.6,0.32-1.09,0.51-1.45,0.57c-0.37,0.06-0.66-0.01-0.88-0.21
		c-0.22-0.21-0.37-0.55-0.45-1.03c-0.08-0.48-0.12-1.08-0.12-1.81c0-0.54,0.02-1,0.07-1.38c0.05-0.38,0.12-0.7,0.21-0.95
		c0.1-0.25,0.23-0.48,0.41-0.67c0.17-0.19,0.41-0.38,0.69-0.57l14.21-9.11c0.13-0.1,0.29-0.17,0.48-0.24
		c0.19-0.06,0.43-0.13,0.72-0.19c0.29-0.06,0.62-0.1,1-0.12c0.38-0.02,0.86-0.02,1.43-0.02c0.76,0,1.4,0.03,1.91,0.1
		c0.51,0.06,0.91,0.15,1.19,0.26c0.29,0.11,0.48,0.25,0.57,0.43c0.09,0.18,0.14,0.36,0.14,0.55v54.21h11.16
		c0.25,0,0.49,0.07,0.72,0.21c0.22,0.14,0.41,0.35,0.55,0.62c0.14,0.27,0.25,0.61,0.33,1.03C67.91,77.05,67.95,77.54,67.95,78.12z"
		/>
</g>
<rect class="st1" width="100" height="100"/>
</svg>
