<?xml version="1.0" encoding="utf-8"?>
<!-- Generator: Adobe Illustrator 23.0.2, SVG Export Plug-In . SVG Version: 6.00 Build 0)  -->
<svg version="1.1" id="Layer_1" xmlns="http://www.w3.org/2000/svg" xmlns:xlink="http://www.w3.org/1999/xlink" x="0px" y="0px"
	 viewBox="0 0 100 100" style="enable-background:new 0 0 100 100;" xml:space="preserve">
<style type="text/css">
	.st0{fill:#FF0000;stroke:#000000;stroke-miterlimit:10;}
</style>
<path class="st0" d="M99,58.18C99,80.72,77.06,99,50,99S1,80.72,1,58.18c0-0.27,0-0.55,0.01-0.82l18.58,4.91
	C21.94,74.5,34.66,83.84,50,83.84c17.01,0,30.8-11.49,30.8-25.66c0-11.45-9-21.14-21.42-24.45l1.67,12.98l-24.68-9.11l-2.91-1.07
	L14.9,29.69l-3.21-1.18l21.8-13.26L55.31,2l2.03,15.81C80.91,20.77,99,37.71,99,58.18z"/>
</svg>
