<?xml version="1.0" encoding="utf-8"?>
<!-- Generator: Adobe Illustrator 23.0.2, SVG Export Plug-In . SVG Version: 6.00 Build 0)  -->
<svg version="1.1" id="Layer_1" xmlns="http://www.w3.org/2000/svg" xmlns:xlink="http://www.w3.org/1999/xlink" x="0px" y="0px"
	 viewBox="0 0 100 100" style="enable-background:new 0 0 100 100;" xml:space="preserve">
<style type="text/css">
	.st0{fill:none;stroke:#000000;stroke-width:4;stroke-miterlimit:10;}
</style>
<g>
	<path d="M72.19,19.7c0,0.63-0.02,1.21-0.08,1.71c-0.05,0.51-0.12,1-0.21,1.48c-0.09,0.47-0.21,0.93-0.37,1.37
		c-0.16,0.44-0.34,0.9-0.55,1.39L46.48,82.13c-0.17,0.42-0.39,0.76-0.66,1.02s-0.6,0.47-1,0.63c-0.41,0.16-0.92,0.26-1.55,0.32
		s-1.4,0.08-2.31,0.08c-1.19,0-2.12-0.05-2.79-0.16c-0.66-0.11-1.15-0.27-1.45-0.5c-0.3-0.23-0.43-0.5-0.39-0.84
		c0.03-0.33,0.16-0.72,0.37-1.18l25.76-57.75H29.8c-0.67,0-1.17-0.35-1.5-1.05c-0.33-0.7-0.5-1.68-0.5-2.95
		c0-0.66,0.05-1.24,0.13-1.73c0.09-0.49,0.22-0.9,0.39-1.24c0.17-0.33,0.38-0.58,0.63-0.74c0.24-0.16,0.53-0.23,0.84-0.23h39.66
		c0.49,0,0.92,0.05,1.29,0.16c0.37,0.11,0.65,0.32,0.84,0.63c0.2,0.32,0.34,0.72,0.44,1.21C72.14,18.3,72.19,18.94,72.19,19.7z"/>
</g>
<rect class="st0" width="100" height="100"/>
</svg>
